<svg width="48" height="47" viewBox="0 0 48 47" fill="none" xmlns="http://www.w3.org/2000/svg">
<rect x="0.878906" width="47" height="47" rx="23.5" fill="#066ACD"/>
<path d="M19.2868 25.7461C17.8056 25.7461 16.5979 24.4041 16.5979 22.7624C16.5979 21.1194 17.7757 19.7773 19.2883 19.7773C20.7837 19.7773 22.0086 21.1194 21.9787 22.7624C21.9787 24.4041 20.7837 25.7461 19.2868 25.7461ZM29.2195 25.7447C27.7383 25.7447 26.5277 24.4027 26.5277 22.761C26.5277 21.1179 27.7084 19.7759 29.2195 19.7759C30.715 19.7759 31.9398 21.1179 31.9113 22.761C31.9113 24.4027 30.7306 25.7447 29.2195 25.7447ZM21.5727 12.2195L21.1341 11.4199L20.2311 11.5705C18.1847 11.9107 16.1931 12.522 14.3091 13.3882L13.9844 13.5373L13.7821 13.8355C10.0606 19.3073 9.03941 24.6966 9.54502 29.9894L9.60056 30.5674L10.0706 30.9083C12.2599 32.51 14.7052 33.731 17.3029 34.5196L18.428 34.8633L20.0132 31.0062C22.7335 31.6765 25.7529 31.6765 28.4718 31.0062L30.0484 34.8647L31.1736 34.521C33.7734 33.7341 36.22 32.512 38.4087 30.9068L38.8744 30.5689L38.9314 29.998C39.5524 23.863 37.9387 18.5191 34.7185 13.8313L34.5163 13.5359L34.1915 13.3882C32.308 12.526 30.3188 11.9148 28.2752 11.5705L27.395 11.4242L26.9478 12.1939C26.8225 12.4069 26.6957 12.6483 26.5733 12.894C25.0283 12.7349 23.4709 12.7349 21.926 12.894C21.8049 12.6526 21.6838 12.4197 21.5727 12.2195ZM16.7161 29.6713C16.9967 29.8332 17.2929 29.9923 17.5849 30.1371L16.9454 31.6936C15.2158 31.0649 13.5748 30.2163 12.0631 29.1686C11.7426 24.7123 12.6513 20.2147 15.7148 15.578C17.0077 15.0103 18.3554 14.5758 19.7369 14.2815C19.8224 14.459 19.9021 14.6337 19.9676 14.787L20.3564 15.7002L21.342 15.5567C23.2734 15.2746 25.2358 15.2746 27.1672 15.5567L28.1499 15.6988L28.5373 14.787C28.6042 14.628 28.6826 14.4547 28.7652 14.2815C30.1567 14.5797 31.504 15.0199 32.7929 15.5809C35.4634 19.5856 36.8107 24.0533 36.419 29.1672C34.9075 30.2172 33.2653 31.0664 31.5339 31.6936L30.9001 30.1386C31.1935 29.9937 31.4897 29.8346 31.7732 29.6713C32.471 29.2709 33.2216 28.771 33.7002 28.2938L31.8771 26.4761C31.645 26.709 31.1323 27.0725 30.4857 27.4446C29.8533 27.8081 29.2252 28.1021 28.8236 28.2342C25.9708 29.1757 22.517 29.1757 19.6628 28.2342C19.2626 28.1021 18.6345 27.8081 18.0022 27.4446C17.3556 27.0739 16.8428 26.709 16.6093 26.4761L14.7862 28.2938C15.2662 28.771 16.0182 29.2709 16.7161 29.6713Z" fill="white"/>
</svg>
