<svg width="48" height="47" viewBox="0 0 48 47" fill="none" xmlns="http://www.w3.org/2000/svg">
<rect x="0.939453" width="47" height="47" rx="23.5" fill="#066ACD"/>
<path d="M12.3335 22.7809C12.3335 17.4256 12.3335 14.7473 14.0027 13.0843C15.6705 11.4199 18.3566 11.4199 23.7274 11.4199H26.5759C31.9467 11.4199 34.6329 11.4199 36.3006 13.0843C37.9699 14.7473 37.9699 17.4256 37.9699 22.7809V25.6211C37.9699 30.9764 37.9699 33.6548 36.3006 35.3177C34.6329 36.9821 31.9467 36.9821 26.5759 36.9821H23.7274C18.3566 36.9821 15.6705 36.9821 14.0027 35.3177C12.3335 33.6548 12.3335 30.9764 12.3335 25.6211V22.7809Z" stroke="white" stroke-width="2"/>
<path d="M31.5607 19.941C32.7406 19.941 33.697 18.9873 33.697 17.8108C33.697 16.6344 32.7406 15.6807 31.5607 15.6807C30.3808 15.6807 29.4243 16.6344 29.4243 17.8108C29.4243 18.9873 30.3808 19.941 31.5607 19.941Z" fill="white"/>
<path d="M25.1516 28.4612C27.5114 28.4612 29.4244 26.5537 29.4244 24.2008C29.4244 21.8479 27.5114 19.9404 25.1516 19.9404C22.7919 19.9404 20.8789 21.8479 20.8789 24.2008C20.8789 26.5537 22.7919 28.4612 25.1516 28.4612Z" stroke="white" stroke-width="2"/>
</svg>
