<svg width="100" height="45" viewBox="0 0 100 45" fill="none" xmlns="http://www.w3.org/2000/svg">
<path fill-rule="evenodd" clip-rule="evenodd" d="M79.2189 19.148C79.1917 19.4267 78.0334 21.4901 77.8164 21.9128L77.4187 22.6492C77.4104 22.6648 77.4002 22.6841 77.3917 22.6997L77.0763 23.286C76.9561 23.5251 76.8299 23.7473 76.7126 23.9793C76.4168 24.5647 76.541 24.5108 76.2793 24.6144C76.2071 24.6428 76.3396 24.6961 75.7979 24.6849C74.8541 24.6653 72.816 24.587 72.0934 24.6578L71.3091 26.0678C71.208 26.2683 70.7199 27.2867 70.5167 27.3671C70.4797 27.616 70.0578 28.3012 69.9173 28.5331L65.8285 36.0029C65.7506 36.3945 65.5812 36.5249 65.4063 36.8742C65.2923 37.102 65.1812 37.4806 65.0096 37.5884C64.9602 37.8172 64.9638 37.752 64.8966 37.8898L64.599 38.538C64.1507 38.6633 62.129 38.5589 61.4976 38.5596C60.3606 38.5607 58.986 38.7374 58.5493 38.7168C58.5858 38.4846 58.6915 38.262 58.8168 38.0106C59.1498 37.3426 58.9372 37.5363 59.1876 37.4554C59.1841 37.2224 59.2905 37.1153 59.3873 36.9125C59.5397 36.5929 59.822 35.7076 60.1567 35.608C60.1027 35.2507 60.9908 33.7188 61.2107 33.3014L61.7829 32.1258C61.9325 31.7807 62.1687 31.374 62.3436 31.0301L64.3484 27.0632C64.5514 26.582 64.4027 26.6737 64.6462 26.5234L65.0668 25.5702C65.2365 25.206 65.4354 25.1235 65.4297 24.6399L61.2832 24.7452C61.2924 24.2648 62.2948 22.2206 62.5314 21.7574L63.0814 20.7283C63.1231 20.664 63.1638 20.5932 63.1972 20.5377L63.282 20.397C63.4213 20.1495 63.4952 19.9434 63.6539 19.7061C63.8244 19.4514 63.9032 19.2295 64.0861 19.0605C64.1785 18.9013 64.301 18.6747 64.4481 18.5016C66.9884 18.325 69.3471 18.1645 71.9367 18.1578C73.548 18.1538 78.3797 18.102 79.6752 18.2028C79.7059 18.7079 79.6883 18.425 79.5123 18.6852C79.3611 18.9085 79.4706 18.982 79.2193 19.1476L79.2189 19.148ZM35.2081 0.000363122H52.4613C52.7253 0.0134355 52.9064 0.0305023 52.9728 0.0528343C53.1822 0.12328 52.8247 0.0849707 53.2559 0.147972L54.16 0.151422H55.3704C55.5091 0.413778 55.5678 0.254549 55.6021 0.611135L55.4993 1.03526C55.3802 1.38005 55.4459 1.88787 55.4459 2.26915C55.664 2.19035 55.8481 1.96812 56.0025 1.76677L56.8092 0.985333C57.009 0.781076 57.0865 0.55939 57.3678 0.409239C57.6356 0.26635 57.6372 0.2954 58.0144 0.299394C58.9036 0.309199 58.7302 0.164313 59.2985 0.14652C59.7777 0.13145 64.1011 0.0737139 64.5783 0.171939C64.8438 0.226407 64.7376 0.294129 65.1281 0.302844C65.1973 1.13476 64.9767 1.49007 64.9767 2.26933C65.3831 2.26026 65.1657 2.2608 65.3299 2.16857C65.3326 2.16711 65.4459 2.08596 65.463 2.0747L66.1163 1.66909C66.1305 1.66056 66.1493 1.64912 66.1637 1.64077C66.1782 1.63242 66.1975 1.6217 66.2122 1.61353L67.6585 1.01783C67.7238 0.993866 67.7605 0.983517 67.8264 0.958825L67.9357 0.916703C67.9526 0.909985 67.9717 0.900907 67.9886 0.893826C68.5208 0.674318 69.1492 0.555759 69.6762 0.387996L70.4018 0.281238C70.559 0.250918 70.591 0.203349 70.7464 0.171939C71.0131 0.118196 71.2697 0.191547 71.5261 0.11983L71.6863 0.0528343C71.7525 0.0305023 72.0055 0.0134355 72.393 0.000363122H83.5382C83.7655 0.000363122 83.9928 0.00145249 84.2202 0.000363122H84.4299L85.1508 0.0991324C86.0026 0.385999 88.1218 -0.0408513 89.2944 0.267077C89.5339 0.329897 89.8286 0.303026 90.0906 0.303026C90.1395 0.749122 90.6443 1.36825 90.8785 1.85973C90.8863 1.87571 90.8938 1.89659 90.9014 1.91257C90.974 2.06326 90.8707 1.87371 90.9495 2.01587L91.2197 2.42638C91.2241 2.43564 91.2842 2.58489 91.2858 2.5887C91.2947 2.6114 91.3236 2.6744 91.3316 2.69818C91.3702 2.81547 91.396 2.8447 91.3795 3.01737L91.2391 3.41753C91.2321 3.43441 91.2248 3.45475 91.2175 3.47163L88.9031 8.04044C88.8928 8.06549 88.8681 8.12142 88.857 8.1452C88.8537 8.15228 88.7844 8.28882 88.7807 8.29608L87.6271 10.546C87.6143 10.5794 87.5362 10.7395 87.5296 10.7513L86.4345 12.8327C86.4097 12.8821 86.3565 12.986 86.333 13.0339L85.7218 14.2379C85.712 14.2591 85.6855 14.3216 85.6757 14.3428L85.5272 14.6482C85.5194 14.6636 85.5096 14.683 85.5018 14.6985C85.3935 14.9104 85.2495 15.1458 85.2495 15.4294C85.6381 15.3388 85.8321 15.3539 86.3116 15.3568C86.9166 15.3603 86.8033 15.2437 87.2173 15.2034C87.5316 15.1727 87.9525 15.215 88.2797 15.2067C88.8121 15.193 88.6464 15.0605 89.1789 15.0469C89.8388 15.03 93.521 14.9548 93.9813 15.0941C94.2361 15.1713 93.9496 15.1769 94.3992 15.2058C94.6617 15.2226 94.953 15.1644 95.2099 15.2272L95.8391 15.3543C96.4169 15.3739 97.7415 15.696 98.2906 16.0041C98.6378 16.1987 98.9721 16.6561 99.2158 16.9698L99.706 17.4627C99.868 17.5975 99.9553 17.7645 100 17.9497V19.3753C99.9962 20.2922 99.9286 20.198 99.5628 20.8919C99.4896 21.0306 99.5421 20.9253 99.4636 21.0954L98.1341 23.926C98.1263 23.9414 98.1165 23.9608 98.1088 23.9763L97.6084 25.0643C97.3722 25.6268 97.1267 25.8258 96.9509 26.2979C96.9442 26.3157 96.9377 26.3356 96.9315 26.3542C96.9251 26.3727 96.9202 26.3934 96.9142 26.4124L95.4612 29.4979C95.0992 29.4897 95.2568 29.4672 95.0904 29.4147C95.0721 29.4087 95.0532 29.4008 95.0345 29.3949L94.5784 29.2461C94.5617 29.2392 94.5435 29.2286 94.5266 29.2219L93.7778 29.0631C93.4718 28.9735 93.8145 29.024 93.4847 28.9779C92.6072 28.8546 91.1496 28.8374 90.3999 29.0511C90.2078 29.1057 89.9499 29.1754 89.7122 29.1952C89.8381 29.4329 90.1166 29.617 90.3336 29.784L91.5179 30.8689C91.5275 30.8814 91.5402 30.9001 91.5498 30.9126L91.7158 31.1249C92.3646 31.8344 92.9255 32.7064 93.22 33.6295C93.3269 33.9648 93.5327 34.8155 93.5003 35.17C93.4433 35.7953 93.4214 35.1717 93.3487 35.7053L93.2038 36.6193L92.0995 38.7673C91.3741 39.767 91.0637 40.1485 90.1348 40.8872L89.7881 41.1458C89.7734 41.1543 89.7531 41.1634 89.7387 41.1721C89.7244 41.1804 89.7044 41.1906 89.6904 41.1995C89.6766 41.2082 89.6576 41.2197 89.6445 41.2289L88.3264 42.0289C88.3103 42.0362 88.2906 42.0454 88.2748 42.0529C88.2591 42.0605 88.2396 42.0699 88.2238 42.0775C88.2082 42.0852 88.189 42.0952 88.1733 42.1028L87.2713 42.4864C87.104 42.5445 87.327 42.469 87.1618 42.5284L83.1367 43.5712C81.7207 43.5881 82.4289 43.7212 81.2403 43.717C80.4257 43.7143 77.2568 43.8485 76.5733 43.6183C76.5553 43.6121 76.5373 43.6027 76.5186 43.5974C76.3233 43.5418 76.0823 43.5622 75.8699 43.5653L75.0375 43.4901C74.697 43.3686 74.3518 43.4665 73.9989 43.3942L72.8206 43.1351C72.5299 43.0767 72.5019 43.1146 72.239 43.0358C71.9414 42.9467 71.9842 42.9962 71.6443 42.9499L68.9106 42.2798L68.3988 43.2808C68.3722 43.3786 68.3837 43.2947 68.381 43.4144C67.957 43.4144 67.5126 43.428 67.0917 43.4178C66.5697 43.4055 66.5764 43.2588 65.9634 43.2601L55.7488 43.2628C54.781 43.2617 54.3503 43.4164 53.4039 43.4142C52.5761 43.4124 51.6411 43.3737 50.8265 43.4086C50.4815 43.4235 50.59 43.4852 50.2874 43.5504C49.7937 43.6569 48.9999 43.5654 48.4869 43.5654C48.4295 43.3187 48.3852 43.3336 48.3169 43.0549C48.2783 42.8977 48.2812 42.7346 48.2365 42.5302C48.0714 41.7718 48.1512 41.681 47.9574 41.5991C47.8568 41.5546 47.9812 41.4207 47.786 41.719L47.3725 42.5271C47.1768 42.8721 46.9166 43.1629 46.8229 43.5656H30.257C30.0985 42.8855 30.2643 41.9768 30.1058 41.2966L29.9766 41.4702C29.9672 41.4828 29.9538 41.5009 29.9441 41.5134L29.5015 42.0539C29.4288 42.1275 29.4577 42.0939 29.386 42.1654C29.1988 42.3528 29.2866 42.2508 29.1479 42.4566C28.9307 42.7789 28.3383 43.2243 28.2148 43.5656H26.3992C26.3075 43.3383 26.5648 43.4536 26.105 43.4058C26.054 43.4006 25.7925 43.4115 25.7201 43.4126C25.4682 43.4169 25.2136 43.4155 24.9616 43.414C24.668 43.4124 24.3974 43.3946 24.1298 43.4901L23.9635 43.5505C23.4309 43.6655 22.5669 43.5683 22.0091 43.5627L21.3541 43.6642C21.0901 43.7532 20.9489 43.7083 20.6467 43.7134L16.7693 44.45C16.7511 44.4556 16.7337 44.466 16.7157 44.472L16.6053 44.5128C16.5853 44.5185 16.5657 44.5234 16.545 44.5283L16.1099 44.6296C16.0226 44.6604 15.9503 44.6835 15.8906 44.7002H15.614C15.5919 44.6632 15.6041 44.6025 15.5823 44.5488C15.3807 44.4674 15.4784 44.5528 15.4319 44.3211L14.8986 40.8455C14.8483 40.2844 14.6444 40.2185 14.8058 39.5061C14.5859 39.5963 14.6373 39.5873 14.4478 39.6326C14.4478 40.2283 14.4528 39.8127 14.1995 40.2164L12.399 43.2568C12.2652 43.4314 12.2561 43.3512 12.1786 43.5658H11.3466C11.2547 43.3385 11.512 43.4538 11.0524 43.406C10.3083 43.329 10.0121 43.477 9.04776 43.2927C8.4934 43.1867 4.18959 43.1902 3.17529 43.1858C2.79724 43.1843 2.67776 43.2203 2.40884 43.253C2.18495 43.28 1.9144 43.2971 1.70957 43.2181C1.69269 43.2114 1.6738 43.2016 1.65801 43.1938L0.227338 41.5988C0.0254212 41.4156 0.263835 41.5434 0 41.4479V39.0277C0.20464 38.9451 0.0646424 39.0155 0.180672 38.8301L0.630627 37.9944C0.640795 37.9737 0.670574 37.914 0.680743 37.8933L0.756098 37.7417C0.763725 37.7261 0.773348 37.7065 0.781156 37.691C0.788783 37.6754 0.798225 37.6558 0.806033 37.6402C0.843438 37.5657 0.85052 37.5505 0.882841 37.49L3.26045 33.0603C3.27152 33.0405 3.3033 32.983 3.31438 32.9632L4.1373 31.5169C4.14474 31.5007 4.15327 31.4809 4.16036 31.4646L4.84055 30.178C4.88668 30.0931 4.94769 30.0093 4.98636 29.946L5.09458 29.7515C5.56851 28.8227 6.35021 27.6327 6.73171 26.8502L7.86822 24.8102C7.87639 24.7953 7.8871 24.7764 7.89527 24.7615L8.47506 23.7529C8.53443 23.646 8.55459 23.6224 8.61614 23.5156C8.6274 23.496 8.66099 23.4403 8.67171 23.4199C8.74434 23.2789 8.65446 23.4675 8.72055 23.3175C8.77902 23.1846 8.76213 23.169 8.82914 23.0479L9.88284 21.3029C9.8912 21.2882 9.90082 21.2684 9.90899 21.2536L10.3159 20.5259C10.3241 20.5112 10.3352 20.4923 10.3433 20.4776C10.3515 20.463 10.3629 20.4443 10.3711 20.4298L10.8178 19.6664C10.8617 19.5905 10.9258 19.4937 10.9622 19.4325L11.1802 19.0452C11.192 19.0262 11.2284 18.973 11.24 18.9537L12.9583 16.0582C13.075 15.8739 13.1048 15.7637 13.3445 15.688C13.9125 15.5086 18.9951 15.5166 19.6353 15.6128C20.4711 15.7386 21.3936 15.7323 22.3147 15.7323L23.7121 11.6081C23.7178 11.5889 23.7245 11.5696 23.7305 11.5507L24.0544 10.589C24.1639 10.2422 24.1728 10.183 24.3569 9.90798C24.9988 9.9225 25.6247 10.2106 26.2481 10.2106C26.2416 9.91688 26.1736 9.85678 26.0841 9.61839L25.945 9.22803C25.9156 9.13816 25.9084 9.11673 25.8875 9.05882L25.7932 8.69914C25.7226 7.78044 25.6516 7.92823 25.7762 7.09178C25.8092 6.87028 25.7696 6.64623 25.8092 6.44361C25.8802 6.07813 25.7878 6.49935 25.8873 6.2192L27.0314 4.0352C27.0412 4.02303 27.0541 4.00451 27.0637 3.99199L29.6102 1.84884C29.6233 1.83958 29.6413 1.82651 29.6543 1.81743L30.2319 1.48735C30.2468 1.47918 30.2661 1.46883 30.2812 1.46084C30.2962 1.45285 30.3155 1.4425 30.3307 1.43488L33.1797 0.426124C33.1981 0.420133 33.2175 0.412689 33.2358 0.406697L34.7152 0.146157C35.2722 0.0724429 34.6238 0.0846075 35.1778 0.00344966C35.1862 0.0023603 35.1969 0.00108937 35.2085 0L35.2081 0.000363122ZM20.93 18.7569C20.786 19.174 20.4915 19.5374 20.275 19.8928L18.9184 22.0219C18.7906 22.2026 18.7067 22.3896 18.5782 22.5813C18.4432 22.7825 18.3374 22.8555 18.2942 23.158C18.6061 23.1055 19.6633 22.2055 19.9743 21.9442C20.0046 21.9188 20.0324 21.8916 20.0983 21.84L23.6288 19.2379C23.6408 19.2279 23.6575 19.213 23.6697 19.203L24.3653 18.6952C24.546 18.5665 24.6602 18.5084 24.8134 18.3833C24.9914 18.2378 25.5882 17.8088 25.8201 17.7679C25.8826 17.6773 25.8172 17.7409 25.9536 17.6258C25.9793 17.6038 26.101 17.5227 26.1324 17.5034C26.8488 17.0633 26.9733 17.4482 27.3325 17.6606C27.8533 17.9684 28.2838 18.2812 28.6675 18.6888L30.4155 20.7857C30.4319 20.8138 30.5199 20.9527 30.5336 20.9776C30.7507 21.3758 30.6414 21.6902 30.0698 21.7216C30.0013 21.8652 30.0375 21.8168 29.9342 21.9094C29.8105 22.0199 29.9392 21.9212 29.743 22.0205L28.9031 22.5428C28.5828 22.7654 28.6934 22.5971 28.38 22.7779L20.859 27.6672C20.6166 27.8312 20.4873 27.9648 20.2594 28.1157C19.9958 28.29 19.8058 28.4668 19.5925 28.4859C19.4746 29.1796 19.9044 30.7774 20.0938 31.4905C20.2256 31.9864 20.8154 34.0264 20.7063 34.4674C20.9138 34.712 20.9144 34.9115 20.9677 35.2447C21.0211 35.5771 21.0858 35.7485 21.1348 36.0612L21.4244 36.0501C21.4021 35.7044 21.5484 35.7721 22.0269 35.1147C22.0532 35.0785 22.126 34.9874 22.1268 34.9863L24.2364 32.096C24.8743 31.3863 26.0286 29.7622 26.7923 28.8376L27.1772 28.3059C27.2749 28.1632 27.2361 28.1623 27.3517 28.0265C27.5041 27.8477 27.3608 27.9314 27.6083 27.8312C27.6194 27.652 27.6668 27.6618 27.7652 27.5428L28.3769 26.7064C28.4971 26.5183 28.374 26.6882 28.5002 26.5279C28.5763 26.4315 28.5625 26.4558 28.6057 26.4066L33.9778 19.5291C34.2007 19.2497 33.9286 19.4024 34.23 19.303L34.7673 18.5788C35.0478 18.3673 35.421 18.4513 35.8551 18.4161C36.1106 18.3954 36.1101 18.3542 36.3161 18.3155C36.7893 18.2269 37.6139 18.3157 38.0517 18.214L42.8507 18.163L42.6901 18.91L41.1229 24.4124C41.0872 24.5683 40.9862 24.7203 40.9461 24.8196C40.8467 25.0651 40.732 25.9863 40.5836 26.1038C40.4482 27.0619 39.9606 28.2039 39.7322 29.1377C39.6981 29.2775 39.6935 29.3902 39.6554 29.5297L39.5437 29.8699C39.1818 31.0666 38.9398 31.6405 38.7039 32.815C38.6843 32.9132 38.674 32.9261 38.6556 32.9862C38.5941 33.1858 38.6803 32.8486 38.5982 33.1533C38.3339 34.1359 38.3985 33.3374 38.2972 34.0333C38.1964 34.7258 37.6057 36.4615 37.5678 36.6837C37.6217 37.1187 37.4223 36.8836 37.8016 36.9593C37.8193 36.7302 37.8732 36.6801 37.9774 36.468C37.9789 36.4649 38.1096 36.2218 38.112 36.2189C38.2302 36.0684 38.1045 36.1487 38.2972 36.061C38.2674 35.7342 38.3043 35.7563 38.4018 35.6031L39.1548 34.2294C39.2332 34.0838 39.2757 34.0529 39.3293 33.9625C39.3581 33.9135 39.4546 33.7036 39.4764 33.6585C39.5826 33.4416 39.6899 33.2571 39.7939 33.0536L42.9542 27.2237C43.178 26.7955 43.0562 26.7859 43.2817 26.6984L43.4056 26.2979C43.4161 26.2774 43.4491 26.2205 43.46 26.2004L43.9521 25.3543C43.9603 25.3389 43.9699 25.3191 43.9781 25.3035L45.322 22.6982C45.3864 22.5737 45.4801 22.3932 45.5586 22.2563C45.7051 22.0007 45.8593 21.7069 46.0096 21.4222C46.1236 21.2064 46.7958 19.8232 46.9538 19.737C47.1764 18.7865 47.5853 18.8488 48.4751 18.5921C49.2838 18.3586 48.4292 18.5065 49.5455 18.3201C49.98 18.2473 49.6399 18.2297 50.0766 18.1848C50.2726 18.1647 50.4843 18.1756 50.6862 18.1541C51.0301 18.1178 50.9936 18.0663 51.2255 18.0256L53.0233 17.8656C54.582 17.8244 56.3529 17.8887 57.8275 18.3342C58.2949 18.4755 58.4749 18.4762 58.8607 18.6712C59.8834 19.1874 60.3945 19.5716 60.838 20.6274C61.1436 21.3556 61.1408 22.0711 61.151 22.9893C61.141 23.9615 60.5999 25.4306 60.1728 26.2904L60.0005 26.5626C59.9876 26.5771 59.9404 26.6196 59.9306 26.629L59.8571 26.6882C59.7792 27.0272 59.4569 27.4116 59.2798 27.6583C59.1502 27.8391 59.1055 27.9503 58.9795 28.1166L57.8028 29.4311C57.7909 29.4411 57.7727 29.4549 57.7602 29.4647L57.1339 29.9721C56.9932 30.0996 56.8748 30.2136 56.7197 30.3271L55.8253 30.9331C55.3504 31.25 54.8046 31.442 54.3712 31.6781L53.3082 32.0661C53.3285 33.5286 53.7572 33.693 53.6018 34.6528C53.8115 34.7058 53.7598 34.6535 53.7859 35.0101C53.8005 35.2091 53.7874 35.2931 53.7529 35.4698L54.2909 38.5542C53.2684 38.6455 52.0411 38.558 50.9838 38.591C49.9679 38.623 48.9249 38.8281 47.8824 38.7444C47.7219 38.4652 47.6763 38.1293 47.6404 37.7146L47.425 36.6834C47.261 35.9504 46.8654 34.0273 46.8285 33.4312C46.7755 33.1013 46.7377 33.0825 46.5209 33.0358C46.3394 33.1687 46.4686 33.0616 46.2734 33.4104C46.2654 33.4247 46.2546 33.4434 46.2466 33.4577C46.1679 33.5981 46.1256 33.6749 46.0343 33.8519L44.9526 35.8075C44.8092 36.0524 44.8952 36.0112 44.7142 36.1104C44.6316 36.394 44.5644 36.3772 44.4653 36.5819C44.3222 36.8765 44.03 37.678 43.7685 37.742C43.6981 38.0489 43.2293 38.6818 43.2289 38.6811C43.2236 38.6689 43.206 38.7129 43.1929 38.7272C41.2068 38.7891 39.0613 38.7542 37.0659 38.7319C36.03 38.7203 35.0017 38.7054 33.9645 38.7074C32.9911 38.7092 31.8467 38.8029 30.9071 38.7535C30.9401 38.4193 31.0423 38.1867 31.1202 37.9852C31.3548 37.3784 31.1807 37.5554 31.4582 37.4045L32.0341 35.6323C32.0416 35.612 32.0532 35.5842 32.0595 35.5675L28.7454 35.4616L27.4009 35.5012C27.3445 35.6265 27.3594 35.5746 27.2847 35.6755L26.5706 36.5795C26.5048 36.8257 26.5666 36.689 26.4121 36.9265C26.3194 37.0688 26.3463 37.0107 26.2483 37.1365C26.1192 37.3023 26.0767 37.378 25.9292 37.5153L25.7805 37.8067C25.0339 38.9015 25.2113 38.5026 23.8291 38.4283C22.3619 38.3494 20.971 38.5124 19.5905 38.5598C18.4298 38.5996 17.4596 38.9946 16.484 39.1637C16.2763 39.1996 16.0544 39.1836 15.8546 39.2436C15.3453 39.3959 15.311 39.5391 14.8067 39.5061C14.7494 39.0348 14.645 38.6021 14.6046 38.2717C14.5658 37.9448 14.5289 37.9641 14.4866 37.7893C14.438 37.5886 14.4514 37.4261 14.4154 37.228C14.351 36.8735 14.2931 36.6207 14.2515 36.138C14.0381 34.8115 13.7939 33.6624 13.6477 32.262C13.6232 32.0265 13.6147 31.7988 13.5704 31.5907C13.5686 31.5826 13.5065 31.3306 13.4994 31.3088L13.3899 31.0689C13.3775 31.0855 13.3645 31.1098 13.3572 31.1216L12.3696 32.7124C12.3238 32.7872 12.2583 32.8922 12.2278 32.9465L9.43507 37.5342C9.43144 37.5236 9.41382 37.5532 9.40275 37.5619C9.38931 37.8548 9.4229 37.6925 9.3056 37.7026C9.24877 37.9866 9.20083 38.0166 9.05775 38.2546C8.97168 38.398 8.93246 38.5277 8.85147 38.6742C8.54206 38.7296 6.51399 38.4616 5.97942 38.4421C5.55543 38.4267 2.87277 38.6032 2.86642 38.333L3.55606 37.0448C3.48252 36.7711 3.56241 36.959 3.65756 36.8902C3.65448 36.6371 4.09426 35.8609 4.26912 35.5731C4.3403 35.456 4.43799 35.3258 4.4912 35.2114L6.926 30.7614C7.1054 30.4309 6.90857 30.5673 7.18003 30.375L11.1385 23.1578C11.1465 23.1418 11.1557 23.1222 11.1637 23.1064C11.1717 23.0906 11.1811 23.071 11.1891 23.0554L13.8313 18.5803C13.982 18.1216 14.1892 17.7816 14.6706 17.7511C15.8723 17.6754 20.2136 17.7912 21.3774 17.8152C21.436 18.081 21.4433 18.1037 21.285 18.3342C21.2757 18.348 21.2599 18.3633 21.2503 18.3767L21.0954 18.6035C20.9785 18.7631 21.1987 18.6687 20.9311 18.7571L20.93 18.7569ZM95.4794 18.5975C95.4166 18.9443 95.3508 18.9715 95.1996 19.2705C95.1914 19.2865 95.1818 19.3061 95.1738 19.3223L94.7162 20.1277C94.6383 20.2809 94.6131 20.4118 94.5321 20.5575C94.48 20.6513 94.4041 20.7456 94.3343 20.8859L92.8601 23.7965C92.7933 23.9245 92.7562 24.0195 92.6823 24.148L92.4357 24.446C92.0078 24.3875 92.3577 24.3791 91.972 24.3196L91.0601 24.158C90.6695 24.0808 88.833 24.1017 88.4237 24.1182C87.9258 24.1384 87.9155 24.2061 87.528 24.2949C86.4852 24.5335 85.4658 25.0643 84.8788 25.952C84.1877 26.9967 84.6017 27.719 85.553 28.3577L87.5919 29.7967C87.6729 29.8917 87.6213 29.7891 87.6711 29.92C88.0399 30.0593 88.4036 30.6425 88.624 30.9714C89.0101 31.5472 88.9447 31.6981 88.9785 32.5016C88.9923 34.6292 86.9195 36.2093 85.2328 37.1908L83.3277 38.0157C82.8405 38.2352 81.3398 38.5449 80.8675 38.6733C80.5768 38.7523 80.4348 38.7408 80.1148 38.7835C79.8904 38.8134 79.7493 38.896 79.5815 38.9467L79.0217 39.0714C78.6729 39.1657 78.5827 39.1399 78.2157 39.1522C77.7103 39.1691 77.2076 39.1778 76.702 39.1813L74.2867 39.1551C73.9782 39.1176 74.0887 39.0644 73.6818 39.0355C72.6899 38.9649 71.8691 38.822 70.9414 38.6633C70.8819 38.3401 71.0731 37.5576 71.3471 37.4027L71.8248 36.043C71.8954 35.8489 72.0525 35.5655 72.1313 35.3767C72.4385 34.6426 72.1647 34.9179 72.4814 34.7595C72.4411 34.5446 72.8605 33.4777 72.9953 33.2203C73.6891 33.085 74.0815 33.3535 75.0431 33.39C75.4135 33.4042 76.1838 33.6119 76.8509 33.6328C77.6759 33.6586 80.7547 33.6725 80.8657 32.2244C80.8974 31.8086 80.8286 31.6214 80.6614 31.3547C80.4981 31.0944 80.3747 31.0197 80.1457 30.8207L78.6744 29.6428C78.583 29.5574 78.5066 29.4897 78.3989 29.3806C77.9785 28.9539 77.6038 28.727 77.4661 28.1371C77.3129 27.9523 77.3888 28.1264 77.302 27.8335C77.1625 27.3618 77.051 27.0523 77.0234 26.5504C77.0004 26.1334 76.901 25.0475 77.2789 24.7722C77.2896 24.2248 77.9982 22.9846 78.3497 22.5229L78.7205 21.9872C79.3892 21.1639 80.3874 20.2637 81.3278 19.7608L82.3584 19.2001C82.5525 19.1153 82.7793 19.0434 82.9742 18.9715L84.4529 18.4818C84.4691 18.4755 84.4887 18.4666 84.5049 18.4601C84.961 18.2754 85.5757 18.0701 86.0785 17.9991C86.3445 17.9617 86.5745 17.9081 86.7755 17.8627C87.6981 17.6543 88.6602 17.6065 89.6659 17.5109C90.4938 17.4321 92.0521 17.4177 92.8804 17.4902C93.5999 17.5528 95.2557 17.5483 95.7872 17.8504C95.7812 18.2061 95.7616 18.0719 95.6713 18.2834C95.5573 18.5512 95.6682 18.4889 95.4794 18.5977V18.5975ZM61.8764 7.86669C61.8628 8.1777 61.6629 9.16013 61.5743 9.37891L61.2739 10.8151C61.228 11.3596 60.7671 12.9279 60.7232 13.6906C60.7114 14.1434 60.6627 14.2121 60.5325 14.5367C60.0975 15.623 61.0767 15.4147 58.4716 15.434C57.7816 15.4391 57.2614 15.5177 56.5683 15.5317C56.5728 15.2323 56.6583 14.9835 56.7036 14.7989C56.7849 14.4677 56.6587 14.254 56.9229 14.254C56.9307 14.0038 57.0431 13.6737 57.0422 13.3023C56.2959 13.3184 55.5845 13.4023 54.9161 13.4161C54.5653 13.4235 54.2807 13.3625 54.077 13.6004C53.9755 13.7188 53.7781 14.1385 53.663 14.2012C53.5884 14.4701 53.6011 14.3726 53.4856 14.5311C53.3979 14.6516 53.4515 14.5645 53.3868 14.6573L52.9499 15.3726L49.3636 15.3821C49.4447 15.0158 49.5983 14.9069 49.7752 14.6008C49.8573 14.4586 49.9156 14.3217 49.9784 14.2072C50.1956 13.811 49.9806 14.0143 50.2669 13.9123C50.2996 13.618 51.782 11.4458 52.0588 11.0625L52.4969 10.2765C52.5824 10.1304 52.5414 10.1923 52.6128 10.0932C52.6216 10.081 52.6354 10.0632 52.6445 10.0512C52.9258 9.67958 53.6537 8.44823 53.9328 8.2516L56.8348 3.81024C56.8781 3.74052 56.9104 3.68025 56.95 3.6196C56.959 3.60581 56.9708 3.58711 56.9803 3.57367C57.2875 3.12485 57.3071 3.00157 57.5241 2.89409C57.7531 2.24065 57.8726 2.46578 58.5048 2.29439L61.3464 2.09013C61.8579 2.09104 62.3716 2.07815 62.8807 2.09812L62.8945 2.44091L62.3952 5.21099C62.2875 5.90437 61.9736 7.07435 61.8764 7.86687V7.86669ZM46.0891 3.0604C46.0296 3.8373 45.7093 5.35914 45.5513 6.21085C45.4914 6.53384 45.3557 6.8937 45.4612 7.10068L47.5409 4.58025C47.851 4.23691 48.4856 3.22943 48.8105 3.10561C48.8622 2.84543 49.018 2.70054 49.2176 2.54894C49.3414 2.45525 49.2417 2.49592 49.411 2.45725C49.619 2.40968 50.4207 2.41295 50.6806 2.40968C51.4895 2.39988 52.362 2.38971 53.1668 2.43873C53.1914 2.80385 53.0741 3.05459 52.9772 3.21581C52.8909 3.70439 52.6356 4.16284 52.445 4.70171L51.2874 7.93768C51.2549 8.02138 51.2153 8.15755 51.1676 8.28882C51.0927 8.49325 51.153 8.2919 51.0404 8.54772L50.6408 9.63073C50.6121 9.70699 50.5961 9.74276 50.5714 9.79541L50.2615 10.6914C50.2099 10.8632 50.2126 10.9035 50.1563 11.0476C49.8689 11.7817 49.1764 13.9119 48.9786 14.1071L48.9241 14.3715C48.8737 14.5857 48.79 14.7206 48.7175 14.9064C48.4842 15.5042 48.6342 15.5012 47.6558 15.4981L44.9238 15.5124C44.882 15.0865 44.9875 14.9741 45.1139 14.6409C45.2065 14.3976 45.2257 14.0625 45.2564 13.7729H45.4226L45.4078 13.4422H45.5438C45.4709 12.9328 46.1828 11.4981 46.2335 10.7197C46.0368 10.7746 46.0962 10.7502 45.9662 10.8673C45.8051 11.0124 45.9308 10.9057 45.808 11.0832C45.576 11.4189 43.8512 13.5381 43.5931 13.6906C43.4851 13.9978 43.3683 14.0832 43.1287 14.3014C43.117 14.3234 43.1009 14.3486 43.0902 14.3651L42.3842 15.227C42.3724 15.2381 42.354 15.2557 42.3431 15.266C42.3125 15.2942 42.2631 15.3606 42.254 15.3434C42.2469 15.3296 42.2238 15.3699 42.2088 15.3873L40.1039 15.3953C40.1302 14.355 40.312 13.4684 40.4738 12.5433C40.5154 12.3059 40.4634 11.84 40.7284 11.8077C40.6403 11.2468 40.8682 11.1814 40.8391 10.5278C40.643 10.6117 40.4356 11.1283 40.2984 11.3252L39.7754 12.1613C39.6926 12.2901 39.6136 12.3841 39.504 12.5811C39.4322 12.71 39.3246 12.9027 39.2523 13.0085C38.9503 13.4501 39.036 13.4237 38.7366 13.691L38.6522 13.9061C38.5005 14.2466 38.5601 14.1465 38.4541 14.1986L37.7457 15.3788L34.0428 15.3614C34.0687 15.1039 34.1025 15.0926 34.2223 14.9311C34.8448 14.0926 34.4666 14.0966 34.8909 13.8992C34.9272 13.7219 34.9035 13.8295 34.9372 13.7551C34.9456 13.7367 34.9721 13.6774 34.9844 13.6594C35.1148 13.4646 34.9839 13.5419 35.2061 13.4708C35.196 13.2699 35.1626 13.3308 35.3176 13.0751L36.4176 11.2953C36.4498 11.2395 36.4966 11.1575 36.5302 11.1052C36.8429 10.6213 36.7548 10.6015 37.0643 10.3697L41.6513 3.149C41.718 3.02281 41.7601 2.83018 42.029 2.75265C42.0653 2.39861 42.293 2.29021 42.7315 2.27641L46.1765 2.32126C46.2369 2.67694 46.2041 2.90171 46.0888 3.06094L46.0891 3.0604ZM80.7398 2.86268C80.6151 3.42897 80.0932 4.16356 79.8121 4.69899L79.6282 5.05158C79.3464 5.71682 78.6061 6.85666 78.5645 7.27697L80.8693 7.26663L82.0888 4.85513C82.3243 4.36001 82.6355 3.96584 82.8429 3.42479C82.8534 3.39719 82.9553 3.15808 82.9575 3.15481C83.0719 2.9698 82.9611 3.03407 83.1554 2.95509L83.3582 2.4509L86.9319 2.55638C87.0768 2.5907 87.1821 2.5956 87.3314 2.61158C87.3442 2.88156 87.1656 3.29425 86.9798 3.34926L86.7327 3.90556C86.6266 4.08222 86.588 4.14105 86.4865 4.33695C86.4 4.50363 86.3283 4.64869 86.2466 4.78178C86.1549 4.93066 86.0906 5.01018 85.9917 5.19919C85.3678 6.39041 84.3818 8.07548 83.847 9.19009C83.7021 9.49257 83.3424 10.2214 83.1301 10.4385C83.084 10.77 82.3011 12.133 82.0646 12.5437L81.4643 13.6908C81.3919 13.9464 81.2377 14.3005 81.0659 14.4657C80.9855 14.7286 80.9848 14.6544 80.9074 14.7987C80.7478 15.0963 80.6904 15.2947 80.484 15.5053L76.854 15.3459C76.8671 14.7858 77.2277 14.7252 77.3152 14.0739H77.4912C77.4776 13.8473 77.4668 14.0134 77.5237 13.8232L77.6205 13.6184C77.7073 13.4571 77.7694 13.3883 77.8436 13.2469C77.9017 13.1365 77.9914 12.917 78.0337 12.8268C78.1463 12.5871 78.0891 12.5829 78.3183 12.4725C78.3343 12.046 78.6429 12.0577 78.6143 11.353L76.3022 11.3256L75.9543 12.0386C75.8092 12.2942 75.7348 12.4734 75.6175 12.6928L75.1114 13.7015C75.1041 13.7151 75.0931 13.7353 75.0852 13.7476C75.078 13.7591 75.0644 13.7783 75.0569 13.7883L74.9293 13.9067C74.8637 14.2233 74.7228 14.3541 74.5859 14.5957C74.4859 14.7724 74.3793 15.0209 74.2812 15.1885C74.1401 15.2956 71.8871 15.1754 71.3295 15.18C70.4971 15.1867 70.8003 15.1535 70.5183 15.0534C70.5423 14.7019 70.5318 14.8906 70.6173 14.7074C70.6523 14.6322 70.7186 14.5193 70.7489 14.4644C71.1219 13.7885 71.1967 13.2255 71.5579 12.948L72.657 10.7157C72.876 10.2241 73.5545 8.6661 73.8271 8.41155C73.8834 8.29335 73.9061 8.14593 73.9653 8.00631C74.0697 7.76011 73.8236 8.30443 74.0148 7.90009C74.025 7.87849 74.0555 7.81803 74.0659 7.79715L74.7252 6.4919C74.8198 6.32632 74.816 6.31288 74.896 6.14004C74.9643 5.99261 74.9316 6.06178 74.9957 5.93487L76.6808 2.53641C76.8502 2.33542 76.4816 2.55675 76.8221 2.42366L76.8324 2.16948C77.6036 2.00353 80.0438 2.14496 80.9786 2.15822C81.0084 2.42039 81.0374 2.36956 80.9118 2.62592L80.7398 2.86268ZM34.6449 9.90271C34.9016 10.0029 34.7253 9.90816 34.8844 10.0374C35.0059 10.1362 34.9145 10.0498 34.997 10.1633L35.1593 10.5039C35.3765 10.5925 35.342 10.4955 35.3765 10.8831C35.5134 12.428 34.3554 13.5401 33.1883 14.3513C32.5288 14.8096 31.8006 15.0821 31.05 15.3258C30.3033 15.5682 29.3704 15.7572 28.5814 15.8614C27.0874 16.0585 25.7852 15.7889 24.621 15.7593C24.5946 15.3554 24.7174 14.9082 24.7842 14.6493L24.9057 14.0808C24.9122 14.0646 24.92 14.0447 24.9276 14.0291C25.074 13.732 25.0008 13.8312 25.1541 13.7743L25.3647 13.0526C25.592 12.3157 25.3979 12.3629 25.6796 12.3316C25.6872 12.1312 25.5514 12.1967 25.9409 12.1766C25.9826 12.1744 26.2347 12.2124 26.2853 12.224C27.0594 12.399 29.261 12.446 29.918 11.9896C30.6285 11.4957 30.1849 10.9952 30.1849 10.9948C30.1791 10.9627 30.1582 10.9598 30.1455 10.9416L29.1085 10.2945C29.0942 10.286 29.0751 10.2747 29.0611 10.266C28.704 10.0449 28.2348 9.57009 28.0268 9.26416C27.6869 8.76432 27.5081 6.83033 27.8838 6.76878C27.9055 6.47611 28.0085 6.28347 28.1296 6.042C28.1376 6.02602 28.1476 6.00695 28.1556 5.99116L28.3462 5.64147C28.3546 5.62604 28.3646 5.60661 28.3729 5.59118L28.5986 5.22043C28.6079 5.20827 28.6217 5.19029 28.6311 5.17849L29.3655 4.3266C29.5855 4.08313 30.1702 3.64775 30.4809 3.47363L30.6795 3.36433C31.4022 2.93948 31.3694 2.99994 32.1473 2.65461C32.3515 2.56383 33.1278 2.44254 33.6983 2.24156C34.2547 2.04565 34.4052 2.21904 34.9661 2.07252C35.7892 1.85755 37.7031 1.98701 38.7094 1.99863C38.7419 2.20542 38.8029 2.47069 38.6062 2.56183C38.5676 2.82727 38.516 2.92132 38.4272 3.10633C38.1957 3.5882 37.3103 5.9612 37.0652 6.32069C36.3784 6.34139 33.4722 5.60389 32.5171 7.56275C32.5171 7.56275 32.3306 7.74377 32.4209 8.1659C32.5173 8.61726 33.5614 9.09495 33.9703 9.37728C34.2138 9.5454 34.4702 9.66196 34.6451 9.90271H34.6449ZM75.0524 2.39134L73.9144 5.15471C73.7276 5.59808 73.7875 5.61333 73.5248 5.95539C71.9659 6.11916 71.3955 5.75023 69.9662 6.35537C69.3691 6.60828 68.2713 7.51101 69.1449 8.31786L69.3321 8.5332C69.7214 8.62071 70.3344 9.02051 70.7032 9.25508C70.977 9.42938 71.6036 9.88728 71.6249 10.3328H71.7781C71.8121 12.0139 71.4537 12.3367 70.5995 13.2591L69.4152 14.1229C69.2095 14.234 68.9736 14.3521 68.777 14.4675C67.9971 14.9249 65.7408 15.5298 64.9043 15.5716C63.7601 15.6286 61.9808 15.7408 60.9547 15.5217C60.9578 15.1943 61.0379 15.0463 61.1526 14.7878C61.2757 14.5111 61.2487 14.3991 61.2886 14.0659H61.4519L61.455 13.6222H61.606C61.5832 13.3891 62.0108 12.2114 62.1027 12.0539C62.9285 11.9985 63.7507 12.1751 64.6775 12.1419C66.9358 12.0608 67.1088 11.0872 66.1668 10.4587L66.0315 10.3648C66.0182 10.3557 66.001 10.3419 65.9881 10.3328C65.8503 10.2382 65.9768 10.3179 65.804 10.2152C64.2471 9.28849 64.4663 8.85274 64.1453 8.57132C64.1509 8.2131 64.075 7.89428 64.1109 7.48523C64.1244 7.33398 64.1565 7.11048 64.1812 7.0059L64.3748 6.62426C64.3975 5.68831 65.6071 4.34821 66.4486 3.74325C66.579 3.64956 66.6049 3.61125 66.7551 3.51975C67.0202 3.35798 66.9507 3.47799 67.2423 3.24868C67.5274 3.02427 67.6801 3.02227 68.3479 2.69491L69.5318 2.29221C70.2747 1.97321 70.6627 2.14769 71.5366 1.88969C72.2978 1.6651 74.3371 1.67436 75.2962 1.77458C75.3126 2.07161 75.2298 2.32017 75.0522 2.39134H75.0524Z" fill="#00020B"/>
<path fill-rule="evenodd" clip-rule="evenodd" d="M20.9302 18.7567C20.3739 18.7362 19.8268 18.6382 19.2154 18.6324C18.6086 18.6267 18.0057 18.6184 17.3981 18.6184C16.6575 18.6184 14.3879 18.7144 13.8305 18.5797L11.1883 23.0548C11.1803 23.0704 11.1709 23.09 11.1629 23.1058C11.1549 23.1216 11.1456 23.1412 11.1376 23.1572L7.1792 30.3745L7.18265 30.7596C7.20916 30.7525 7.22804 30.7203 7.23422 30.733C7.24057 30.7463 7.26708 30.7118 7.27616 30.7076C7.65712 30.5293 8.7328 30.3899 9.23486 30.3118C9.52685 30.2666 9.81828 30.2781 10.064 30.2363C11.0325 30.0716 11.9747 29.8568 13.0887 29.7987C13.4261 29.7811 13.5251 29.7635 13.8054 29.6932C14.0983 29.6199 14.3707 29.6513 14.6795 29.627C15.1199 29.5925 14.9412 29.5229 15.3517 29.4846C16.256 29.4006 18.6501 28.949 19.2136 29.0404L19.2844 28.8978C19.5087 28.3766 19.3133 28.5732 19.5924 28.4851C19.8057 28.4661 19.9956 28.2892 20.2593 28.1149C20.4872 27.9641 20.6165 27.8304 20.8589 27.6665L28.3799 22.7772C28.6933 22.5966 28.5827 22.7649 28.903 22.5421L29.7429 22.0197C29.939 21.9204 29.8104 22.0192 29.9341 21.9086C30.0374 21.816 30.0012 21.8645 30.0697 21.7209L29.8264 21.6639C29.7379 21.2554 28.8471 20.3011 28.5352 19.9548L28.1996 19.6061C27.5842 18.9897 27.5857 19.0539 26.9718 18.5648C26.7604 18.3963 26.6451 18.3344 26.3577 18.1899C26.2954 18.1583 26.2137 18.1167 26.1547 18.0877C25.7296 17.8785 25.8747 18.0477 25.8198 17.7676C25.5879 17.8084 24.9911 18.2375 24.8131 18.3829C24.6599 18.508 24.5457 18.5661 24.365 18.6948L23.6694 19.2026C23.6574 19.2126 23.6407 19.2275 23.6285 19.2375L20.0981 21.8396C20.0321 21.8912 20.0044 21.9184 19.974 21.9438C19.663 22.2051 18.6058 23.1049 18.2939 23.1576C18.3369 22.8551 18.443 22.7821 18.5779 22.5809C18.7064 22.3892 18.7903 22.2022 18.9182 22.0216L20.2747 19.8924C20.4914 19.5371 20.7857 19.1736 20.9297 18.7565L20.9302 18.7567Z" fill="#FF6145"/>
<path fill-rule="evenodd" clip-rule="evenodd" d="M49.9206 26.6243C49.4939 26.7868 47.1842 26.7251 46.5205 26.7416C45.93 26.7561 45.8609 26.6967 45.3515 26.8247C45.1845 26.8667 45.2074 26.8661 45.0142 26.8774C44.4947 26.9077 43.8673 26.9103 43.3151 26.9213L43.2815 26.6984C43.056 26.7859 43.178 26.7955 42.954 27.2236L39.7937 33.0536C39.6899 33.2569 39.5824 33.4416 39.4762 33.6585C39.4542 33.7036 39.3579 33.9134 39.3291 33.9625C39.2757 34.0529 39.2332 34.0836 39.1546 34.2294L38.4016 35.603C38.3039 35.7563 38.2672 35.7343 38.297 36.0609C38.2935 36.3271 38.3188 36.1989 38.2002 36.5319L42.8884 36.1334C43.1662 36.1301 43.4471 36.1227 43.7246 36.1118C44.0327 36.1 44.1729 36.0671 44.3276 36.1626L44.4286 36.2518C44.4425 36.2636 44.4609 36.2881 44.4781 36.305C44.6459 35.8756 44.4068 36.2249 44.7136 36.1107C44.8947 36.0116 44.8086 36.0528 44.9521 35.8078L46.0337 33.8523C46.1251 33.6752 46.1674 33.5984 46.246 33.4581C46.254 33.4437 46.2649 33.425 46.2729 33.4107C46.4681 33.0619 46.3388 33.1689 46.5204 33.0361C46.7374 33.0828 46.7749 33.1017 46.828 33.4316C46.9304 33.5175 47.042 33.5781 47.1003 33.809C47.1432 33.9792 47.1192 34.0932 47.123 34.2644C47.1294 34.5422 47.1058 34.4178 47.1873 34.6095C47.1962 34.6304 47.2886 34.8018 47.314 34.93C47.3264 34.9928 47.328 35.0705 47.3324 35.1081L47.5793 36.5319C47.5951 36.5087 47.6078 36.4805 47.618 36.4571L47.7302 35.9634C48.9081 35.9634 52.249 35.905 53.3988 36.0406C53.4217 36.0432 53.4892 36.051 53.5096 36.0506C53.5263 36.0502 53.5568 36.0432 53.5707 36.0421L53.7058 36.0027C53.6879 35.4353 53.4346 35.3189 53.6013 34.6528C53.7567 33.6932 53.3282 33.5285 53.3076 32.0661L54.3706 31.6781C54.804 31.442 55.3499 31.2499 55.8247 30.9331L56.7192 30.3271C56.8742 30.2136 56.9926 30.0996 57.1333 29.9721L57.7596 29.4646C57.7721 29.4548 57.7903 29.441 57.8023 29.4311L58.9789 28.1165C59.1049 27.9501 59.1494 27.8391 59.2793 27.6583C59.4563 27.4115 59.7786 27.0272 59.8565 26.6882C59.1554 26.7888 57.4155 26.6697 56.581 26.6699C55.6798 26.6699 54.2368 26.5851 53.4039 26.7218C53.3029 26.6201 53.3205 26.881 53.3158 26.5132C53.0311 26.6381 53.2897 26.4901 53.0799 26.6862C52.6512 27.0867 52.4357 27.3351 51.8338 27.626C51.0535 28.0034 50.1373 28.2583 49.237 28.2171C49.2422 27.6601 49.7801 27.1546 49.9206 26.6241V26.6243Z" fill="#F03F01"/>
<path fill-rule="evenodd" clip-rule="evenodd" d="M35.1762 27.0686C34.9855 27.1589 35.1733 27.0174 35.0378 27.1672C34.8984 27.3214 34.9223 27.4628 34.8742 27.6631L34.1971 29.9569L31.6294 29.9709C31.7247 29.6237 32.5605 28.6553 32.859 28.3127L33.132 27.9045C33.2053 27.7615 33.1454 27.9536 33.2416 27.6767C32.7051 27.6524 32.1621 27.6796 31.6147 27.6919L29.4497 27.8918C28.5162 28.1339 29.0546 27.9657 28.1323 28.0278C27.5972 28.0638 27.9017 28.1533 27.5573 28.1736L27.6079 27.8314C27.3604 27.9316 27.5037 27.8479 27.3514 28.0267C27.2357 28.1625 27.2746 28.1635 27.1769 28.3062L26.7919 28.8378C26.0282 29.7625 24.8739 31.3865 24.236 32.0963L22.1264 34.9865C22.1257 34.9876 22.0529 35.0788 22.0265 35.1149C21.5479 35.7723 21.4017 35.7046 21.424 36.0503L21.4727 36.2949C21.8484 35.9475 21.8261 35.967 22.4645 35.9871C22.9068 36.0011 23.4047 36.0232 23.769 36.0614C24.6006 36.1482 25.5873 36.0659 26.4081 36.1425C26.4008 36.3225 26.424 36.1494 26.383 36.29L26.3427 36.4183C26.2412 36.7222 26.1551 36.5736 26.3234 36.6977C26.4473 36.3486 26.2906 36.6164 26.5695 36.5805L27.2836 35.6765C27.3583 35.5755 27.3434 35.6274 27.3998 35.5022L28.7443 35.4626C28.7443 35.2035 28.5986 35.2233 29.5002 35.2442L32.2987 35.2469C32.2869 36.0316 31.9591 36.1482 31.9406 36.8109L32.0381 36.6812C32.2696 36.3953 31.9096 36.457 33.0555 36.4722L35.1531 36.5098C35.4244 36.5507 35.296 36.5977 35.6973 36.6169C36.1562 36.6387 36.6619 36.6226 37.1271 36.6298L37.055 37.136C37.2446 37.2889 36.9727 37.2275 37.2253 37.1812C37.299 37.0342 37.3034 37.0037 37.356 36.9191C37.4953 36.6947 37.3177 36.8161 37.567 36.6839C37.605 36.4617 38.1957 34.7258 38.2964 34.0335C38.3978 33.3376 38.3329 34.1361 38.5975 33.1535C38.6796 32.8488 38.5931 33.186 38.6549 32.9864C38.6732 32.9264 38.6834 32.9133 38.7032 32.8152C38.9391 31.6407 39.1813 31.0666 39.543 29.8701L39.6547 29.5299C39.693 29.3904 39.6973 29.2775 39.7315 29.1379C39.9599 28.2043 40.4474 27.0623 40.5829 26.104C40.3343 26.2371 40.2575 26.8059 40.1658 27.0913C39.4251 27.177 38.4386 27.1965 37.6671 27.2188C37.1801 27.2328 37.0199 27.3386 36.4614 27.3528C36.0351 27.3635 35.5757 27.4203 35.1782 27.4258L35.176 27.0692L35.1762 27.0686Z" fill="#F03F01"/>
<path fill-rule="evenodd" clip-rule="evenodd" d="M77.2791 24.7722C76.9011 25.0476 77.0006 26.1333 77.0236 26.5504C77.0512 27.052 77.1625 27.3618 77.3022 27.8335C77.389 28.1263 77.3131 27.9522 77.4663 28.137C78.4131 28.2792 79.2533 28.2204 80.1695 28.4482C80.5819 28.5506 81.0326 28.6142 81.4629 28.6805C81.7968 28.732 81.6832 28.7769 82.0692 28.8192L83.0543 28.982C83.1634 29.0091 83.2716 29.0367 83.3475 29.0557C83.9789 29.2124 84.8374 29.3028 85.8185 29.5973L87.5947 30.1313L87.6713 29.92C87.6216 29.7892 87.6729 29.8918 87.5921 29.7967L85.5532 28.3576C84.6021 27.7187 84.1881 26.9965 84.879 25.9519C85.466 25.0643 86.4854 24.5334 87.5282 24.2948C87.9157 24.2062 87.9261 24.1385 88.4239 24.1182C88.833 24.1017 90.6697 24.0808 91.0603 24.1579L91.9722 24.3195C92.3579 24.3791 92.008 24.3874 92.436 24.4459L92.6825 24.148C92.7564 24.0196 92.7935 23.9246 92.8603 23.7965L94.3346 20.8858C94.4043 20.7455 94.4802 20.6513 94.5323 20.5574C94.6133 20.4118 94.6385 20.2809 94.7164 20.1276L95.174 19.3222C95.182 19.3061 95.1916 19.2865 95.1998 19.2705C95.351 18.9716 95.4168 18.9442 95.4796 18.5974C94.9494 18.6672 93.5547 18.4498 92.5113 18.4324C90.6912 18.4025 87.0517 18.4488 85.387 19.1145L82.9568 19.8212L81.4153 20.5964C79.8995 21.5019 78.7274 22.3343 77.9079 23.9666L77.5007 24.6941C77.4222 24.8519 77.4809 24.8067 77.383 24.9673C77.2717 24.8798 77.3136 25.1131 77.2793 24.7722H77.2791Z" fill="#FF6145"/>
<path fill-rule="evenodd" clip-rule="evenodd" d="M46.9533 19.7369C46.7954 19.8231 46.1233 21.2065 46.0091 21.4222C45.8586 21.7068 45.7046 22.0004 45.5581 22.2562C45.4796 22.3931 45.3859 22.5738 45.3215 22.6982L43.9776 25.3034C43.9694 25.319 43.9598 25.3388 43.9516 25.3542L43.4596 26.2003C43.4487 26.2203 43.4156 26.2771 43.4051 26.2978L43.2812 26.6983L43.3148 26.9213C43.867 26.9102 44.4942 26.9075 45.0139 26.8773C45.2071 26.8661 45.1842 26.8666 45.3513 26.8247C45.8606 26.6967 45.9298 26.7561 46.5203 26.7415C47.1839 26.725 49.4936 26.7867 49.9204 26.6242L51.2542 24.1715C51.6089 23.4605 51.5807 23.5537 52.5344 23.3837C56.1309 22.7428 53.3744 26.1582 53.3155 26.5133C53.3204 26.881 53.3026 26.6203 53.4036 26.7219C54.2363 26.5852 55.6795 26.67 56.5807 26.67C57.4154 26.6698 59.1551 26.7889 59.8562 26.6883L59.9298 26.6292C59.9396 26.6197 59.987 26.5772 59.9997 26.5627L60.172 26.2905C60.5989 25.4305 61.14 23.9617 61.1502 22.9894C60.8976 22.9455 60.9617 22.9912 60.872 22.6359C60.6254 21.6582 60.8224 22.1896 60.4482 21.2584C60.1843 20.6017 59.1455 19.8451 58.4918 19.5697C58.2077 19.45 57.9108 19.3402 57.5988 19.2405C55.5397 18.5829 50.9757 18.7479 48.9335 19.3451C48.5363 19.4613 47.3076 19.8173 46.9532 19.7367L46.9533 19.7369Z" fill="#FF6145"/>
<path fill-rule="evenodd" clip-rule="evenodd" d="M64.0856 19.0608C63.9027 19.2298 63.8239 19.4517 63.6534 19.7064C63.4947 19.9437 63.421 20.1496 63.2815 20.3973L63.1967 20.538C63.1633 20.5935 63.1227 20.6643 63.0809 20.7286L62.5309 21.7577C62.2943 22.221 61.2922 24.2652 61.2827 24.7455L65.4293 24.6402C65.4349 25.1239 65.2361 25.2063 65.0663 25.5705L64.6458 26.5237L64.6267 26.9175C65.7334 26.8336 66.6983 26.9665 67.6963 27.0377C68.2861 27.0798 68.5868 27.052 69.1055 27.159C69.4573 27.2314 69.9112 27.1742 70.1743 27.2358C70.5302 27.3189 70.097 27.271 70.5164 27.3674C70.7196 27.287 71.2077 26.2686 71.3088 26.0682L72.0931 24.6581C72.8158 24.5875 74.8538 24.6656 75.7977 24.6852C76.3393 24.6963 76.2068 24.6431 76.279 24.6148C76.5407 24.5111 76.4165 24.565 76.7123 23.9797C76.8296 23.7476 76.9558 23.5254 77.076 23.2863L77.3914 22.7C77.3999 22.6844 77.4101 22.6651 77.4184 22.6495L77.8161 21.9131C78.0331 21.4904 79.1914 19.427 79.2186 19.1483C78.3049 18.9818 72.7651 19.0147 71.4817 19.0194C69.2884 19.0272 67.0513 19.1696 64.9052 19.3215C63.9093 19.392 64.0741 19.4266 64.0852 19.0612L64.0856 19.0608Z" fill="#FF6145"/>
<path fill-rule="evenodd" clip-rule="evenodd" d="M34.2299 19.3029C33.9285 19.4022 34.2009 19.2496 33.9777 19.529L28.6057 26.4065C28.5625 26.4559 28.5763 26.4314 28.5002 26.5278C28.374 26.6881 28.4973 26.5182 28.3769 26.7063L27.7652 27.5427C27.6667 27.6616 27.6195 27.6518 27.6083 27.831L27.5576 28.1733C27.9021 28.153 27.5976 28.0634 28.1327 28.0275C29.0549 27.9654 28.5164 28.1335 29.45 27.8915L31.615 27.6916C32.1627 27.6794 32.7054 27.652 33.242 27.6764C33.4686 27.6034 33.5281 27.4538 33.5503 27.4245C33.6843 27.249 33.7139 27.1974 33.8499 27.0396C34.0589 26.7974 34.2421 26.5414 34.4206 26.3254L35.1168 25.4346C35.1266 25.4221 35.1408 25.4052 35.1509 25.3927L35.6394 24.9513C35.6254 25.3398 35.4947 25.6681 35.3959 25.9975C35.3022 26.3103 35.168 26.7593 35.1762 27.0687L35.1783 27.4253C35.5758 27.4198 36.035 27.3632 36.4616 27.3523C37.0201 27.3381 37.1803 27.2323 37.6673 27.2183C38.4388 27.1959 39.4255 27.1765 40.166 27.0908C40.2577 26.8054 40.3345 26.2366 40.5831 26.1035C40.7314 25.986 40.8462 25.0648 40.9455 24.8193C40.9856 24.72 41.0866 24.568 41.1224 24.4121L42.6896 18.9097C42.2151 19.2407 42.4835 19.0346 41.8363 19.0113C40.16 18.9516 37.9138 18.9652 36.2693 19.1728C35.9134 19.2176 35.6281 19.2537 35.2495 19.2721C34.8045 19.2939 34.5624 19.4051 34.2592 19.414L34.2294 19.3027L34.2299 19.3029Z" fill="#FF6145"/>
<path fill-rule="evenodd" clip-rule="evenodd" d="M7.179 30.3752C6.90753 30.5674 7.10437 30.4311 6.92497 30.7615L4.49016 35.2116C4.43696 35.326 4.33927 35.4562 4.26809 35.5733C4.09305 35.861 3.65326 36.6372 3.65653 36.8903C3.69648 37.1875 3.74568 36.9036 3.60986 37.2883L4.02768 36.9375C4.1408 36.7002 3.9772 36.8869 4.34199 36.2503C4.42915 36.0978 4.38866 36.1933 4.44477 36.0575C5.59453 36.1089 8.99716 36.1826 9.90306 36.009C9.89234 36.1855 9.37684 37.0875 9.25518 37.2465C9.15803 37.374 9.0046 37.4913 9.00097 37.516L9.40153 37.5623C9.41261 37.5536 9.43004 37.5238 9.43385 37.5345L12.2266 32.9468C12.2571 32.8927 12.3224 32.7876 12.3684 32.7128L13.356 31.1219C13.3632 31.1101 13.3761 31.0858 13.3887 31.0693L13.4982 31.3091C13.5054 31.3311 13.5673 31.5829 13.5692 31.5911C13.6135 31.7993 13.622 32.027 13.6465 32.2623C13.7927 33.6629 14.0369 34.8118 14.2503 36.1383L14.3962 36.0767C14.9748 35.8491 14.2902 36.0856 14.58 36.0056L20.9342 35.8514C20.8821 35.3167 20.5874 34.9233 20.7058 34.4674C20.8149 34.0264 20.225 31.9863 20.0933 31.4905C19.9039 30.7773 19.4741 29.1796 19.592 28.4858C19.3129 28.5737 19.5081 28.3773 19.284 28.8985L19.2132 29.0411C18.6498 28.9495 16.2556 29.4013 15.3514 29.4853C14.9406 29.5236 15.1195 29.5932 14.6792 29.6277C14.3701 29.652 14.0977 29.6206 13.805 29.6939C13.5247 29.7642 13.4257 29.7818 13.0883 29.7994C11.9743 29.8575 11.0321 30.0721 10.0636 30.237C9.8179 30.2788 9.52628 30.2673 9.23448 30.3125C8.73259 30.3906 7.65673 30.53 7.27578 30.7083C7.2667 30.7127 7.24019 30.747 7.23383 30.7337C7.22766 30.7212 7.20878 30.7532 7.18226 30.7603L7.17881 30.3752H7.179Z" fill="#F03F01"/>
<path fill-rule="evenodd" clip-rule="evenodd" d="M72.4816 34.7595C72.4811 34.9924 72.5032 34.7834 72.4553 35.0166C72.4536 35.024 72.4017 35.1998 72.3906 35.2462L74.6624 35.6462C75.26 35.6802 75.3484 35.8154 76.4854 35.8321L76.8119 35.8833C76.8214 35.8908 76.8379 35.9222 76.8535 35.942C77.497 35.9585 77.775 36.0707 78.3642 36.0834C78.9827 36.097 81.1769 36.1335 81.6592 36.0404C82.158 35.944 82.5689 35.8545 83.1347 35.8178C83.579 35.7891 83.4966 35.7114 83.8232 35.6577C84.2329 35.5903 84.2362 35.6134 84.5271 35.5106C84.8152 35.4091 84.8908 35.3791 85.1682 35.3011C85.5385 35.1965 85.2004 35.3387 85.5897 35.0734L87.5928 33.8905C87.8235 33.7487 87.7982 33.7999 88.0172 33.7868C88.1855 33.7402 87.9616 33.8696 88.1133 33.7042C88.5106 33.271 88.4263 33.2416 88.6642 32.8353C88.7931 32.6149 88.7993 32.5804 88.9785 32.5018C88.9447 31.6982 89.0101 31.5473 88.624 30.9716C88.4036 30.6426 88.0399 30.0594 87.6711 29.9201L87.5945 30.1315L85.8183 29.5975C84.8372 29.303 83.9785 29.2124 83.3473 29.0559C83.2714 29.037 83.1632 29.0092 83.0541 28.9822L82.069 28.8193C81.683 28.777 81.7968 28.7322 81.4627 28.6806C81.0324 28.6142 80.5817 28.5508 80.1693 28.4484C79.2532 28.2205 78.4129 28.2794 77.4661 28.1372C77.6038 28.7271 77.9787 28.9541 78.3989 29.3807C78.5066 29.4898 78.583 29.5576 78.6744 29.6429L80.1457 30.8209C80.3747 31.02 80.4982 31.0945 80.6614 31.3548C80.8286 31.6216 80.8975 31.8087 80.8657 32.2245C80.7547 33.6725 77.6759 33.6587 76.8509 33.6329C76.1838 33.6122 75.4136 33.4043 75.0431 33.3901C74.0815 33.3536 73.6891 33.0851 72.9953 33.2204C72.8606 33.4778 72.4411 34.5447 72.4814 34.7597L72.4816 34.7595Z" fill="#F03F01"/>
<path fill-rule="evenodd" clip-rule="evenodd" d="M37.0645 10.3689C37.0374 11.0056 37.0165 10.5419 36.9259 10.8082C36.8642 10.9894 36.8567 11.0281 36.9138 11.1441L37.4518 10.234C37.6911 9.80839 38.0401 9.8939 38.7328 9.85251C39.2066 9.82436 39.0473 9.72904 39.598 9.67712C39.8606 9.65243 40.2265 9.67893 40.4871 9.61303C41.3347 9.39879 43.9507 9.36193 44.368 9.29838C44.3847 9.29584 44.4045 9.2913 44.4206 9.28803L44.5221 9.25553C44.9688 9.12517 44.8519 9.182 45.3151 9.16657C45.6991 9.15404 45.7718 9.06998 46.2139 9.05473C48.4475 8.97811 47.3366 8.87317 47.9832 8.77421C48.3021 8.72537 48.7544 8.75406 48.993 8.72065C49.6423 8.63024 50.4503 8.79691 51.0403 8.54744C51.1529 8.29181 51.0926 8.49316 51.1674 8.28854C51.2153 8.15727 51.2547 8.0211 51.2872 7.9374L52.4448 4.70143C52.6355 4.16256 52.8908 3.70412 52.977 3.21554C52.3805 3.32484 51.4196 3.24803 50.7561 3.25021C49.4896 3.25457 49.5846 3.33355 48.7709 3.39637L48.8103 3.10515C48.4855 3.22915 47.8508 4.23664 47.5407 4.57979L45.4611 7.10022C45.3556 6.89324 45.4912 6.53339 45.5511 6.21039C45.7091 5.35868 46.0294 3.83684 46.089 3.05994C45.5693 3.23115 42.8006 3.08481 41.9056 3.14763L42.0292 2.75146C41.7603 2.82899 41.7182 3.02163 41.6515 3.14781L37.0645 10.3685V10.3689Z" fill="#3099FE"/>
<path fill-rule="evenodd" clip-rule="evenodd" d="M73.8271 8.41159C73.8215 8.78615 73.694 8.66414 73.6343 9.37005C73.769 9.1097 73.6701 9.17814 74.0452 9.14673L75.5149 9.26312C76.0339 9.39366 76.2935 9.27637 76.8479 9.42071C77.2094 9.51476 77.7209 9.49569 78.1349 9.50187C78.3866 9.89077 78.548 9.57449 79.2035 9.7005C79.7486 9.80526 79.2155 9.79963 79.7319 9.84792C80.0203 9.87498 80.1236 9.86789 80.3689 9.92345C80.6344 9.98373 80.6571 9.9772 80.9423 10.0173L82.7532 10.3138L82.8469 10.4957C82.9804 10.7568 82.7725 10.4491 82.9047 10.6061C82.9925 10.3443 82.8939 10.5264 83.1304 10.4385C83.3426 10.2214 83.7023 9.49261 83.8472 9.19013C84.3818 8.07552 85.368 6.39045 85.9919 5.19923C86.0908 5.01022 86.1551 4.93052 86.2468 4.78182C86.3287 4.64874 86.4002 4.50367 86.4867 4.337C86.5882 4.14109 86.627 4.08226 86.7329 3.90561L86.98 3.3493C86.5524 3.42719 85.7173 3.27123 85.0981 3.25634C84.4947 3.24164 83.7454 3.21803 83.1552 3.28321V2.95495C82.9611 3.03375 83.0717 2.96966 82.9575 3.15467C82.9555 3.15794 82.8536 3.39705 82.8429 3.42465C82.6354 3.9657 82.3243 4.36005 82.0888 4.85499L80.8693 7.26649L78.5645 7.27684C78.6061 6.85652 79.3462 5.7165 79.6282 5.05144L79.8122 4.69885C80.0931 4.16342 80.6151 3.42883 80.7399 2.86254C80.2071 3.0884 79.3914 2.94406 78.7443 2.94152C78.0788 2.93916 77.3521 2.97547 76.7004 2.95368C76.732 2.55933 76.8263 2.82205 76.8219 2.42334C76.4816 2.55661 76.8501 2.33528 76.6806 2.53609L74.9956 5.93455C74.9315 6.06146 74.9642 5.99229 74.8959 6.13972C74.8158 6.31238 74.8196 6.326 74.725 6.49158L74.0657 7.79683C74.0554 7.81771 74.0249 7.87835 74.0147 7.89977C73.8235 8.30411 74.0695 7.75961 73.9651 8.00598C73.9059 8.14542 73.883 8.29303 73.8269 8.41123L73.8271 8.41159Z" fill="#3099FE"/>
<path fill-rule="evenodd" clip-rule="evenodd" d="M37.0645 10.3688C36.7549 10.6006 36.8432 10.6204 36.5305 11.1043C36.4969 11.1566 36.4499 11.2388 36.4179 11.2944L35.3179 13.0742C35.1629 13.3299 35.1963 13.269 35.2064 13.4699L35.2553 13.606C35.8567 13.6452 35.298 13.6224 35.6108 13.524C35.8274 13.4559 35.7445 13.4686 35.9999 13.462C36.4432 13.4506 37.9851 13.431 38.3528 13.6696C38.3706 13.681 38.3888 13.6975 38.4044 13.7093L38.7367 13.6904C39.0361 13.4232 38.9504 13.4497 39.2524 13.008C39.3247 12.9021 39.4322 12.7097 39.5041 12.5806C39.6137 12.3838 39.6927 12.2897 39.7755 12.1608L40.2985 11.3247C40.4358 11.1277 40.6431 10.6112 40.8392 10.5273C40.8681 11.1809 40.6402 11.2463 40.7285 11.8071C40.7582 12.029 40.5685 12.8331 40.5298 13.1932L40.4732 13.6701C40.6736 13.6485 42.9495 13.5666 43.1466 13.6596L43.2486 13.7317C43.2646 13.7438 43.284 13.7685 43.2967 13.7798C43.31 13.7912 43.3274 13.8154 43.3436 13.8324L43.5934 13.6903C43.8513 13.5378 45.5761 11.4184 45.8083 11.0829C45.9311 10.9053 45.8054 11.0122 45.9665 10.867C46.0963 10.7497 46.0369 10.7742 46.2338 10.7194C46.1831 11.4977 45.4713 12.9324 45.5441 13.4419L45.5111 13.9918C45.8786 13.8419 45.3277 14.2046 45.6411 13.8916C45.9149 13.6184 45.737 13.6494 46.0578 13.6235C46.2939 13.6044 46.7269 13.6218 46.9744 13.6318C47.5502 13.6549 48.1375 13.6839 48.7142 13.6365C48.7182 14.2304 48.6419 14.045 48.9787 14.1068C49.1765 13.9116 49.869 11.7813 50.1564 11.0473C50.2129 10.9031 50.21 10.8628 50.2616 10.6911L50.5715 9.79505C50.5962 9.7424 50.6122 9.70663 50.6409 9.63038L51.0406 8.54736C50.4506 8.79701 49.6426 8.63034 48.9932 8.72057C48.7546 8.75398 48.3022 8.72547 47.9835 8.77413C47.3369 8.87308 48.4478 8.97803 46.2142 9.05465C45.772 9.0699 45.6994 9.15396 45.3153 9.16649C44.8521 9.18192 44.9691 9.12491 44.5224 9.25545L44.4209 9.28795C44.4047 9.29122 44.3849 9.29576 44.3682 9.2983C43.951 9.36203 41.3349 9.3987 40.4873 9.61295C40.2268 9.67885 39.8609 9.65234 39.5983 9.67704C39.0476 9.72896 39.2068 9.8241 38.7331 9.85243C38.0402 9.89382 37.6914 9.80831 37.452 10.2339L36.914 11.1441C36.857 11.028 36.8644 10.9895 36.9262 10.8082C37.017 10.542 37.0377 11.0055 37.0647 10.3688H37.0645Z" fill="#1685FE"/>
<path fill-rule="evenodd" clip-rule="evenodd" d="M60.1567 35.608L60.2162 35.8504C60.6004 35.4681 61.908 35.7932 62.9145 35.5414L65.7609 35.3159C65.7575 35.8827 65.666 35.5697 65.6146 36.0026L65.8287 36.0029L69.9175 28.5331C70.058 28.3015 70.4796 27.6163 70.5169 27.3672C70.0972 27.2709 70.5307 27.3187 70.1748 27.2355C69.9117 27.174 69.4575 27.231 69.106 27.1587C68.5874 27.0516 68.2865 27.0796 67.6968 27.0374C66.6988 26.9663 65.7339 26.8334 64.6271 26.9172L64.6462 26.5234C64.4027 26.6738 64.5514 26.5821 64.3484 27.0632L62.3436 31.0302C62.1686 31.374 61.9323 31.7807 61.7829 32.1259L61.2107 33.3015C60.9908 33.7187 60.1027 35.2505 60.1567 35.608Z" fill="#F03F01"/>
<path fill-rule="evenodd" clip-rule="evenodd" d="M58.4409 6.81606C58.67 6.83767 58.5268 6.7576 58.6477 6.88306L58.319 8.39274C58.2934 8.6974 58.2377 8.99298 58.1839 9.17436C58.0944 9.47557 58.1071 9.5206 57.9421 9.73938L56.7397 9.74446C56.6961 9.27222 56.9548 9.41729 57.0845 8.84065C56.7929 8.74806 57.0585 8.88132 56.876 8.63567L56.8076 8.51475C56.2781 8.52129 55.7486 8.51602 55.2189 8.51965C54.272 8.52637 53.9913 8.39456 53.8765 8.73898L53.9326 8.25185C53.6535 8.44848 52.9256 9.67983 52.6443 10.0515C52.6352 10.0635 52.6214 10.0813 52.6125 10.0934C52.5414 10.1926 52.5822 10.1305 52.4967 10.2768L52.0585 11.0628C51.7818 11.4461 50.2994 13.6183 50.2667 13.9126L50.1841 14.2561L52.7266 14.2457C53.2353 14.2532 53.0986 14.2494 53.436 14.3757C53.5762 14.0703 53.3744 14.2937 53.6628 14.2014C53.7779 14.1388 53.9753 13.719 54.0768 13.6006C54.2805 13.3628 54.5651 13.4238 54.9159 13.4164C55.5843 13.4024 56.2957 13.3185 57.042 13.3025C57.0429 13.674 56.9305 14.0041 56.9227 14.2543L56.9621 14.4157L60.3625 14.4097C60.5314 14.0338 60.4731 13.8347 60.723 13.6909C60.7669 12.9281 61.2278 11.3598 61.2737 10.8153L61.574 9.37916C61.6625 9.16038 61.8626 8.17795 61.8762 7.86694L61.7696 7.96807C61.756 7.98405 61.7389 8.00093 61.7253 8.01891L61.5306 8.40745C61.525 8.39528 61.5094 8.45048 61.4974 8.47136C60.9717 8.3183 59.179 8.40581 58.5397 8.43123C58.4627 7.83553 58.7343 7.37182 58.8342 6.93626C58.8752 6.75687 58.8785 6.81987 58.8591 6.65992C58.8331 6.44495 58.8651 6.56224 58.7743 6.43115C58.4478 6.5065 58.4997 6.50087 58.4409 6.81643V6.81606Z" fill="#1685FE"/>
<path fill-rule="evenodd" clip-rule="evenodd" d="M27.8837 6.76812C27.508 6.82967 27.6869 8.76366 28.0268 9.26349C28.2349 9.56942 28.7039 10.0442 29.0611 10.2653C29.075 10.2741 29.0941 10.2853 29.1085 10.2939L30.1455 10.9409C30.523 10.9293 30.3761 10.9271 30.6775 10.8612C30.9128 10.8097 31.0886 10.8367 31.3099 10.7997C32.06 10.6737 30.9755 10.6588 32.3805 10.5513L32.8741 10.436C33.2594 10.35 33.3355 10.4918 33.9054 10.3215C34.269 10.2129 34.3567 10.279 34.7803 10.2777L34.6448 9.90241C34.47 9.66166 34.2136 9.5451 33.9701 9.37697C33.5612 9.09464 32.5171 8.61695 32.4207 8.16559C32.3304 7.74346 32.5169 7.56245 32.5169 7.56245C33.472 5.60358 36.3782 6.34127 37.0649 6.32039C37.3101 5.96071 38.1954 3.58789 38.427 3.10603C38.5159 2.92083 38.5675 2.82697 38.606 2.56152C38.2301 2.72057 38.5537 2.70532 38.2953 2.83405L36.9894 2.8119C36.2912 2.81226 35.8298 2.83931 35.1901 2.90358C34.4889 2.97385 33.6792 3.01361 33.0213 3.2244L31.9921 3.56047C31.248 3.73005 30.1355 4.42943 29.5315 4.95341C29.5201 4.9634 29.5036 4.97829 29.4923 4.98863C29.4811 4.99898 29.4654 5.01496 29.4547 5.02549C29.4437 5.0362 29.4282 5.05273 29.4175 5.0638L28.2908 6.56894C27.971 7.12561 28.1704 7.00306 27.9158 7.16083L27.8839 6.76848L27.8837 6.76812Z" fill="#319BFF"/>
<path fill-rule="evenodd" clip-rule="evenodd" d="M64.3751 6.62385L64.1815 7.00549C64.1568 7.10989 64.1245 7.33357 64.1113 7.48481C64.0753 7.89387 64.1512 8.21269 64.1456 8.57091C64.1456 8.0974 64.1131 8.46579 64.2967 8.35722C64.439 8.56492 64.3571 8.52734 64.516 8.61031L64.6273 8.55766C64.9451 8.46797 65.3275 8.51427 65.6581 8.51445C66.0867 8.51481 66.5158 8.51663 66.9441 8.52498L69.289 8.73341L69.3322 8.53297L69.145 8.31764C68.2714 7.51078 69.3695 6.60806 69.9663 6.35514C71.3957 5.74982 71.9659 6.11893 73.5249 5.95516C73.7877 5.61328 73.7277 5.59803 73.9146 5.15448L75.0525 2.39111C74.6954 2.53437 74.9826 2.5901 74.2075 2.58302C72.8068 2.57068 71.1199 2.65855 69.7664 3.05762C69.5438 3.12335 69.1663 3.17764 68.9965 3.26206L67.6492 3.82617C67.1972 4.00192 67.3891 3.94219 67.0376 4.17041C66.5121 4.51102 66.2786 4.6265 65.8829 4.99543C65.7208 5.14685 65.5565 5.33894 65.4081 5.50089L65.062 5.90051C64.727 6.37275 64.571 6.72462 64.4479 7.38278C64.3406 7.20684 64.3758 6.90037 64.3751 6.62403V6.62385Z" fill="#319BFF"/>
<path fill-rule="evenodd" clip-rule="evenodd" d="M57.5243 2.89397C57.3072 3.00164 57.2877 3.12473 56.9805 3.57355C56.9713 3.58717 56.9593 3.60587 56.9502 3.61949C56.9106 3.67995 56.8785 3.74023 56.8351 3.81013L53.9331 8.25148L53.877 8.73861C53.9917 8.39419 54.2724 8.526 55.2194 8.51928C55.749 8.51583 56.2785 8.52092 56.808 8.51438L56.8765 8.6353C57.059 8.88095 56.7931 8.74769 57.0849 8.84028C57.2051 8.74533 57.3733 8.53835 57.4837 8.398C57.682 8.14599 58.4253 7.07079 58.4411 6.81587C58.5 6.5005 58.4482 6.50595 58.7745 6.4306C58.8653 6.56187 58.8334 6.4444 58.8593 6.65937C58.8787 6.81932 58.8755 6.75614 58.8344 6.9357C58.7346 7.37109 58.4629 7.8348 58.5399 8.43068C59.1793 8.40526 60.972 8.31775 61.4977 8.47081C61.5097 8.45011 61.5253 8.39473 61.5309 8.4069L61.7256 8.01835C61.7394 8.00038 61.7564 7.98349 61.7699 7.96752L61.8764 7.86639C61.9736 7.07387 62.2877 5.90389 62.3952 5.21051L62.8946 2.44043C62.6173 2.54174 62.7751 2.54828 62.6324 2.88289C60.8264 3.04285 60.4832 2.74836 57.64 3.15088C57.5042 3.02161 57.5381 3.36585 57.5242 2.89379L57.5243 2.89397Z" fill="#319BFF"/>
<path fill-rule="evenodd" clip-rule="evenodd" d="M71.5578 12.9478L71.457 13.3422L71.4116 13.6735L71.6341 13.5575C71.9391 13.4032 71.8191 13.4504 72.2405 13.4386C72.7057 13.4253 72.5318 13.3458 72.9905 13.3245C73.6006 13.2962 74.2141 13.3124 74.8201 13.2815C74.8179 13.6116 74.7089 13.8086 74.5261 13.9927L74.696 14.0924L74.8687 13.944C74.8818 13.9348 74.9092 13.9192 74.9292 13.9064L75.0568 13.7881C75.0643 13.7781 75.0781 13.759 75.0852 13.7474C75.093 13.7351 75.104 13.7147 75.1113 13.7013L75.6174 12.6925C75.7347 12.4732 75.8091 12.294 75.9542 12.0384L76.3021 11.3254L78.6142 11.3528C78.6429 12.0574 78.3342 12.0458 78.3182 12.4723L78.2828 12.6106C78.119 13.0954 77.9136 13.1005 77.9124 13.6374C78.3514 13.4587 77.9617 13.4436 78.5886 13.458C79.5417 13.4798 79.053 13.4349 79.6762 13.5834L80.9377 13.6365C81.0372 13.8649 80.921 13.6806 80.9709 13.8532L81.0889 14.1436C81.0993 14.1194 81.1093 14.0566 81.1158 14.0691L81.2049 13.8767C81.3388 13.6931 81.228 13.7777 81.4644 13.6904L82.0647 12.5433C82.3011 12.1326 83.0841 10.7696 83.1302 10.4381C82.8938 10.5258 82.9926 10.3439 82.9045 10.6057C82.7723 10.4486 82.9802 10.7564 82.8468 10.4953L82.7531 10.3134L80.9422 10.0169C80.6569 9.97674 80.6344 9.98327 80.3688 9.92299C80.1235 9.86744 80.0201 9.87452 79.7318 9.84746C79.2154 9.79899 79.7485 9.8048 79.2034 9.70004C78.5477 9.57385 78.3863 9.89013 78.1348 9.50141C77.7208 9.49523 77.2093 9.51448 76.8478 9.42025C76.2934 9.27591 76.0339 9.39338 75.5148 9.26265L74.0451 9.14627C73.6701 9.17787 73.7689 9.10942 73.6342 9.36959C73.6939 8.66368 73.8214 8.78569 73.827 8.41113C73.5544 8.66568 72.8759 10.2237 72.6569 10.7153L71.5578 12.9476V12.9478Z" fill="#1685FE"/>
<path fill-rule="evenodd" clip-rule="evenodd" d="M64.1457 8.57107C64.4667 8.85249 64.2475 9.28842 65.8044 10.2149C65.9771 10.3177 65.8505 10.238 65.9885 10.3326C66.0016 10.3417 66.0188 10.3555 66.0319 10.3645L66.1672 10.4584C67.1092 11.087 66.9362 12.0605 64.6779 12.1417C63.7509 12.1749 62.9287 11.9982 62.1031 12.0536C62.0112 12.2114 61.5837 13.389 61.6064 13.6219C61.6221 13.9166 61.4534 14.2 61.6491 14.3783C61.9576 14.1871 61.6092 14.3807 61.9518 13.8017C62.8662 13.731 62.346 13.826 63.3347 13.666C63.9957 13.5589 64.0827 13.7318 64.7349 13.5221C65.0566 13.4186 65.1013 13.533 65.907 13.3262L68.3761 12.6333C68.3959 12.627 68.4161 12.6215 68.4355 12.615C68.4545 12.6088 68.4742 12.6017 68.4929 12.5954L69.1013 12.365C69.1228 12.3552 69.1823 12.325 69.2032 12.3149C69.3515 12.2422 69.337 12.2473 69.4529 12.1892C69.6299 12.1001 69.7915 12.0336 69.9642 11.9465C69.9682 11.9445 70.1881 11.8306 70.1979 11.8254L70.6054 11.5263C70.619 11.5169 70.638 11.506 70.6517 11.4966L71.0798 11.2104C71.5966 11.0675 71.3359 11.1966 71.3642 11.3234C71.5841 11.1807 71.6151 10.6438 71.6257 10.3328C71.6044 9.88703 70.9778 9.42913 70.704 9.25501C70.335 9.02025 69.7222 8.62064 69.3328 8.53313L69.2896 8.73357L66.9447 8.52514C66.5164 8.51678 66.0873 8.51497 65.6588 8.51461C65.3281 8.51442 64.9457 8.46831 64.6279 8.55782L64.5166 8.61047C64.3577 8.5275 64.4396 8.56508 64.2973 8.35737C64.1137 8.46595 64.1462 8.09756 64.1462 8.57107H64.1457Z" fill="#1685FE"/>
<path fill-rule="evenodd" clip-rule="evenodd" d="M72.4815 34.7592C72.1648 34.9176 72.4386 34.6423 72.1314 35.3764C72.0526 35.565 71.8955 35.8486 71.8249 36.0427L71.3472 37.4024L71.4042 37.7151C71.8011 37.7111 72.177 37.7528 72.5174 37.836L77.612 38.0549C78.3264 38.0337 79.3169 37.8107 79.9542 37.7679C80.605 37.7241 80.6244 37.6564 81.0838 37.5246C82.1156 37.2285 81.8565 37.3937 83.1925 36.9216C84.4534 36.4759 84.377 36.6262 85.6695 35.8252C86.5563 35.2758 86.8305 35.148 87.6165 34.3614L87.7293 34.2483C87.8971 34.0764 87.9463 34.0642 88.0171 33.7866C87.7981 33.7999 87.8234 33.7487 87.5928 33.8903L85.5896 35.0732C85.2003 35.3384 85.5384 35.1963 85.1681 35.3008C84.8907 35.3789 84.8151 35.4089 84.527 35.5104C84.2361 35.6131 84.2328 35.5901 83.8232 35.6574C83.4963 35.7112 83.5787 35.7889 83.1346 35.8176C82.5686 35.8542 82.1579 35.9438 81.6591 36.0402C81.1768 36.1333 78.9828 36.0968 78.3641 36.0832C77.7749 36.0707 77.4969 35.9583 76.8534 35.9418C76.8378 35.922 76.8213 35.8906 76.8118 35.8831L76.4853 35.8319C75.3485 35.8152 75.2599 35.6799 74.6623 35.646L72.3905 35.246C72.4014 35.1993 72.4534 35.0238 72.4552 35.0163C72.5031 34.783 72.481 34.992 72.4815 34.7592Z" fill="#E63A01"/>
<path fill-rule="evenodd" clip-rule="evenodd" d="M14.2505 36.1386C14.2921 36.6213 14.3502 36.8741 14.4145 37.2286C14.4504 37.4267 14.4372 37.5894 14.4856 37.7899C14.5279 37.9647 14.5648 37.9455 14.6037 38.2723C15.219 38.5856 15.3781 38.3311 15.8429 38.2205L18.441 37.6522C19.3389 37.406 23.3364 37.3626 24.5132 37.4146C25.1033 37.4407 25.1818 37.6406 25.9283 37.5159C26.0755 37.3786 26.118 37.3029 26.2473 37.1371C26.3455 37.0113 26.3185 37.0694 26.4111 36.9271C26.5654 36.6896 26.5039 36.8263 26.5696 36.5801C26.2907 36.6161 26.4474 36.3483 26.3235 36.6974C26.1552 36.5732 26.2413 36.7219 26.3428 36.418L26.3831 36.2896C26.4241 36.1489 26.4009 36.3221 26.4082 36.1422C25.5874 36.0656 24.6007 36.148 23.7691 36.061C23.4048 36.0231 22.9069 36.0008 22.4646 35.9868C21.826 35.9668 21.8485 35.9472 21.4728 36.2945L21.4242 36.05L21.1345 36.061C21.0855 35.7484 21.0211 35.5772 20.9675 35.2445C20.9141 34.9114 20.9136 34.7118 20.706 34.4673C20.5876 34.9232 20.8823 35.3164 20.9344 35.8513L14.5802 36.0055C14.2906 36.0855 14.9752 35.8491 14.3965 36.0766L14.2505 36.1382V36.1386Z" fill="#E63A01"/>
<path fill-rule="evenodd" clip-rule="evenodd" d="M88.0167 33.7867C87.9459 34.0643 87.8966 34.0763 87.7289 34.2484L87.6161 34.3616C86.8301 35.1481 86.5559 35.2759 85.669 35.8253C84.3765 36.6264 84.453 36.476 83.1921 36.9218C81.856 37.3938 82.1151 37.2286 81.0834 37.5247C80.6242 37.6565 80.6046 37.7243 79.9538 37.768C79.3165 37.8109 78.3261 38.0338 77.6116 38.0551L72.517 37.8361C72.1767 37.7529 71.8007 37.711 71.4038 37.7152L71.3467 37.4025C71.0727 37.5574 70.8815 38.3399 70.9411 38.6631C71.8688 38.8218 72.6895 38.9647 73.6815 39.0353C74.0882 39.0642 73.9776 39.1174 74.2863 39.155L76.7017 39.1811C77.2072 39.1777 77.71 39.1689 78.2154 39.1521C78.5823 39.1399 78.6726 39.1657 79.0214 39.0713L79.5812 38.9465C79.749 38.8959 79.8902 38.8131 80.1145 38.7833C80.4344 38.7406 80.5764 38.7521 80.8671 38.6731C81.3394 38.5447 82.8402 38.235 83.3274 38.0155L85.2325 37.1906C86.919 36.2093 88.9919 34.629 88.9781 32.5015C88.7989 32.5801 88.7927 32.6146 88.6638 32.835C88.426 33.2413 88.5102 33.2707 88.1129 33.7039C87.9613 33.8693 88.1852 33.7399 88.0169 33.7866L88.0167 33.7867Z" fill="#B92A01"/>
<path fill-rule="evenodd" clip-rule="evenodd" d="M77.279 24.7722C77.3133 25.1132 77.2714 24.8799 77.3827 24.9674C77.4805 24.8067 77.4219 24.8518 77.5003 24.6942L77.9076 23.9666C78.7271 22.3344 79.899 21.5021 81.415 20.5965L82.9564 19.8212L85.3867 19.1146C87.0516 18.4488 90.6908 18.4027 92.511 18.4325C93.5543 18.4497 94.9491 18.6672 95.4793 18.5975C95.6679 18.4888 95.557 18.5509 95.6712 18.2832C95.7614 18.0717 95.7811 18.2059 95.7871 17.8502C95.2556 17.5481 93.5997 17.5528 92.8803 17.49C92.052 17.4176 90.4936 17.4319 89.6658 17.5107C88.66 17.6062 87.698 17.6541 86.7754 17.8626C86.5742 17.9079 86.3444 17.9615 86.0783 17.9989C85.5756 18.0697 84.9609 18.2752 84.5048 18.4599C84.4886 18.4664 84.469 18.4753 84.4528 18.4817L82.9741 18.9714C82.7792 19.0434 82.5524 19.1151 82.3583 19.1999L81.3277 19.7606C80.3873 20.2635 79.3891 21.1637 78.7204 21.9871L78.3496 22.5227C77.998 22.9844 77.2897 24.2246 77.2788 24.7721L77.279 24.7722Z" fill="#FCCBD4"/>
<path fill-rule="evenodd" clip-rule="evenodd" d="M49.9205 26.6241C49.7799 27.1548 49.2421 27.6603 49.2368 28.2171C50.1371 28.2583 51.0533 28.0034 51.8336 27.626C52.4355 27.3351 52.6512 27.0867 53.0798 26.6862C53.2895 26.4901 53.0309 26.6379 53.3156 26.5132C53.3745 26.158 56.131 22.7427 52.5345 23.3836C51.5806 23.5535 51.609 23.4604 51.2543 24.1714L49.9205 26.6241Z" fill="#02030B"/>
<path fill-rule="evenodd" clip-rule="evenodd" d="M30.1453 10.9414C30.1579 10.9595 30.1789 10.9626 30.1847 10.9946C30.1847 10.9949 30.6283 11.4953 29.9178 11.9893C29.2608 12.4458 27.0592 12.3986 26.2851 12.2237C26.2345 12.2123 25.9824 12.1742 25.9407 12.1763C25.5512 12.1965 25.687 12.1311 25.6794 12.3314C25.7237 12.7408 25.5621 12.5622 25.5728 13.0852L26.2139 13.1829C26.8309 13.3363 29.0713 13.3469 29.7297 13.2977C30.1691 13.2646 29.9098 13.1962 30.3316 13.1459C30.5942 13.1145 30.7796 13.1715 31.0331 13.0894C31.8104 12.8376 32.3374 12.7789 33.1719 12.3588L34.1032 11.8005C34.1179 11.7918 34.1375 11.7814 34.1522 11.7724L34.9467 11.199C35.2586 11.3188 34.9968 11.1244 35.0652 11.3321C35.2864 11.2368 35.1845 10.7237 35.1591 10.504L34.9968 10.1634C34.9142 10.0501 35.0057 10.1363 34.8842 10.0376C34.7249 9.90828 34.9014 10.0031 34.6447 9.90283L34.7801 10.2781C34.3565 10.2794 34.2688 10.2133 33.9053 10.3219C33.3353 10.492 33.2592 10.3502 32.8739 10.4364L32.3804 10.5517C30.9755 10.6594 32.0599 10.6741 31.3098 10.8001C31.0884 10.8371 30.9127 10.8101 30.6773 10.8617C30.3759 10.9277 30.5228 10.9297 30.1453 10.9414Z" fill="#1685FE"/>
<path fill-rule="evenodd" clip-rule="evenodd" d="M46.9533 19.737C47.3078 19.8176 48.5365 19.4614 48.9336 19.3454C50.9757 18.7481 55.5397 18.5832 57.599 19.2408C57.9109 19.3405 58.2078 19.4503 58.492 19.57C59.1457 19.8454 60.1845 20.602 60.4483 21.2587C60.8226 22.1899 60.6255 21.6585 60.8721 22.6362C60.9618 22.9915 60.8977 22.9458 61.1503 22.9897C61.1401 22.0714 61.1429 21.356 60.8373 20.6278C60.394 19.572 59.8827 19.1878 58.86 18.6716C58.474 18.4766 58.2942 18.4759 57.8268 18.3346C56.3522 17.8889 54.5813 17.8248 53.0226 17.866L51.2248 18.026C50.9931 18.0667 51.0294 18.1182 50.6855 18.1545C50.4836 18.176 50.2719 18.1649 50.0759 18.1852C49.6392 18.2301 49.9795 18.2477 49.5448 18.3205C48.4285 18.5069 49.2832 18.3592 48.4744 18.5925C47.5847 18.8492 47.1757 18.7869 46.9531 19.7374L46.9533 19.737Z" fill="#FCCBD4"/>
<path fill-rule="evenodd" clip-rule="evenodd" d="M37.2261 37.1809L37.1471 37.6119C35.7473 37.7917 32.7903 37.3488 31.4865 37.7481L31.4578 37.4048C31.1804 37.5556 31.3545 37.3786 31.1199 37.9854C31.042 38.1869 30.9398 38.4195 30.9067 38.7538C31.8462 38.8031 32.9905 38.7095 33.9642 38.7076C35.0014 38.7056 36.0295 38.7205 37.0656 38.7322C39.0611 38.7547 41.2067 38.7895 43.1926 38.7274C43.2059 38.7129 43.2235 38.669 43.2286 38.6813C43.2289 38.682 43.6976 38.0491 43.7682 37.7423C43.3758 37.8031 43.6511 37.8389 43.4588 37.8149L42.3604 37.7336C40.9968 37.7227 38.6473 37.788 37.517 37.71L37.7532 37.0549C37.7579 37.0451 37.7737 37.0318 37.7772 37.0071C37.7804 36.9821 37.7959 36.9761 37.8019 36.9592C37.4226 36.8835 37.6221 37.1188 37.568 36.6836C37.3189 36.8158 37.4965 36.6943 37.357 36.9187C37.3043 37.0033 37.2998 37.0338 37.2263 37.1809H37.2261Z" fill="#B62901"/>
<path fill-rule="evenodd" clip-rule="evenodd" d="M64.0856 19.0607C64.0745 19.4262 63.9096 19.3915 64.9056 19.3211C67.0517 19.1691 69.2886 19.0268 71.4821 19.019C72.7655 19.0142 78.3053 18.9816 79.219 19.1479C79.4703 18.9823 79.3608 18.9089 79.5121 18.6854C79.688 18.4252 79.7056 18.7081 79.6749 18.203C78.3794 18.1023 73.5475 18.1538 71.9364 18.158C69.3469 18.1647 66.9881 18.3252 64.4478 18.5019C64.3009 18.6749 64.1782 18.9015 64.0858 19.0607H64.0856Z" fill="#FED6DB"/>
<path fill-rule="evenodd" clip-rule="evenodd" d="M25.6795 12.3315C25.3978 12.3629 25.5919 12.3155 25.3646 13.0525L25.154 13.7742C25.1785 14.1696 24.9871 14.2457 24.9913 14.7486C25.5763 14.7519 25.8318 14.8657 26.4744 14.8721C27.0584 14.8779 27.6349 14.869 28.2183 14.8572C29.2381 14.837 30.826 14.2811 31.6823 14.0525C32.4068 13.8591 33.3127 13.2308 33.8696 12.7683L34.3274 12.3872C34.5478 12.1517 34.937 11.7411 35.0653 11.3318C34.9969 11.1241 35.2587 11.3186 34.9468 11.1987L34.1523 11.7721C34.1376 11.7812 34.118 11.7915 34.1033 11.8002L33.172 12.3585C32.3375 12.7789 31.8105 12.8375 31.0332 13.0891C30.7797 13.1712 30.5943 13.1142 30.3317 13.1456C29.9099 13.1959 30.1692 13.2644 29.7298 13.2974C29.0714 13.3468 26.831 13.3363 26.214 13.1826L25.5729 13.085C25.5622 12.5619 25.7238 12.7405 25.6795 12.3311V12.3315Z" fill="#0081F7"/>
<path fill-rule="evenodd" clip-rule="evenodd" d="M60.1567 35.6079C59.822 35.7075 59.5397 36.5928 59.3873 36.9124C59.2907 37.1152 59.1841 37.2225 59.1876 37.4553L59.2355 37.7254C59.3343 37.6401 59.2417 37.6611 59.3991 37.6134C59.5498 37.5676 59.5978 37.5814 59.751 37.5675C60.9489 37.4582 60.4427 37.4493 61.9516 37.4494C62.4538 37.4496 63.0489 37.4253 63.5417 37.4618C63.8918 37.4876 63.7808 37.5379 64.142 37.5711C64.4167 37.5965 64.7352 37.6025 65.0098 37.5885C65.1813 37.4805 65.2923 37.1019 65.4065 36.8743C65.5814 36.5249 65.7508 36.3946 65.8287 36.0029L65.6146 36.0026C65.666 35.5697 65.7575 35.8828 65.761 35.3159L62.9145 35.5414C61.908 35.7932 60.6005 35.4679 60.2162 35.8504L60.1567 35.608V35.6079Z" fill="#E63A01"/>
<path fill-rule="evenodd" clip-rule="evenodd" d="M71.3636 11.3236C70.4325 12.9462 67.7532 13.9187 65.9981 14.2734C65.7185 14.3301 65.5983 14.3951 65.3479 14.4265C63.7113 14.6311 62.9216 14.5233 61.4299 14.5752L61.4522 14.0661H61.289C61.2491 14.3993 61.2759 14.5115 61.153 14.788C61.0381 15.0465 60.9582 15.1945 60.9551 15.5218C61.9812 15.741 63.7605 15.6288 64.9046 15.5718C65.7412 15.53 67.9975 14.9252 68.7774 14.4677C68.974 14.3522 69.2099 14.2342 69.4156 14.1231L70.5999 13.2592C71.454 12.3369 71.8125 12.0141 71.7785 10.333H71.6253C71.6147 10.644 71.5837 11.1809 71.3638 11.3236H71.3636Z" fill="#0055B5"/>
<path fill-rule="evenodd" clip-rule="evenodd" d="M35.0653 11.3315C34.9369 11.7406 34.5478 12.1514 34.3274 12.3869L33.8696 12.768C33.3127 13.2305 32.4068 13.8589 31.6823 14.0522C30.8261 14.2808 29.238 14.8367 28.2183 14.8569C27.6349 14.8685 27.0584 14.8774 26.4744 14.8718C25.8318 14.8654 25.5763 14.7518 24.9913 14.7483C24.9873 14.2454 25.1785 14.1693 25.1539 13.7739C25.0007 13.8307 25.0741 13.7316 24.9275 14.0286C24.9199 14.0442 24.9121 14.0642 24.9055 14.0804L24.7841 14.6488C24.7172 14.9079 24.5945 15.3551 24.6208 15.7589C25.7853 15.7887 27.0874 16.0581 28.5813 15.8609C29.3702 15.7567 30.3032 15.5675 31.0498 15.3253C31.8005 15.0817 32.5286 14.8091 33.1881 14.3509C34.3553 13.5397 35.5133 12.4276 35.3763 10.8827C35.3418 10.4951 35.3763 10.5922 35.1592 10.5034C35.1846 10.7231 35.2865 11.2362 35.0653 11.3315Z" fill="#0055B5"/>
<path fill-rule="evenodd" clip-rule="evenodd" d="M14.604 38.2721C14.6443 38.6026 14.7487 39.0352 14.8061 39.5066C15.3103 39.5396 15.3447 39.3964 15.854 39.244C16.0539 39.1841 16.2758 39.2001 16.4834 39.1642C17.459 38.9951 18.4292 38.5999 19.5898 38.5603C20.9704 38.5129 22.3613 38.3499 23.8284 38.4288C25.2104 38.5033 25.033 38.9022 25.7799 37.8072L25.9286 37.5158C25.1821 37.6405 25.1035 37.4406 24.5135 37.4144C23.3367 37.3625 19.3392 37.4059 18.4413 37.6521L15.8433 38.2204C15.3784 38.331 15.2194 38.5855 14.604 38.2721Z" fill="#B62901"/>
<path fill-rule="evenodd" clip-rule="evenodd" d="M47.6397 37.7149L50.7125 37.5613C51.7641 37.4565 52.8376 37.467 53.9695 37.4808C53.9986 36.8829 53.6496 35.9532 53.752 35.4698C53.7865 35.2932 53.7996 35.2089 53.7851 35.0101C53.7589 34.6535 53.8107 34.7058 53.6009 34.6528C53.4342 35.319 53.6875 35.4354 53.7055 36.0027L53.5704 36.0421C53.5563 36.0432 53.5259 36.0503 53.5092 36.0507C53.4889 36.051 53.4213 36.0432 53.3985 36.0407C52.2487 35.9051 48.9078 35.9635 47.7299 35.9635L47.6177 36.4572C47.6077 36.4806 47.5948 36.5087 47.579 36.532L47.3321 35.1082C47.3275 35.0706 47.3261 34.9929 47.3137 34.9301C47.2883 34.8019 47.1959 34.6307 47.187 34.6096C47.1055 34.4179 47.1291 34.5423 47.1227 34.2645C47.1191 34.0932 47.1429 33.9792 47.1 33.8091C47.0417 33.5783 46.93 33.5177 46.8276 33.4316C46.8643 34.0275 47.26 35.9508 47.4241 36.6838L47.6395 37.715L47.6397 37.7149Z" fill="#E63A01"/>
<path fill-rule="evenodd" clip-rule="evenodd" d="M37.8015 36.9594C37.7955 36.9763 37.7801 36.9823 37.7768 37.0073C37.7735 37.032 37.7576 37.0451 37.7528 37.0551L37.5166 37.7102C38.6469 37.7882 40.9962 37.7227 42.3601 37.7338L43.4584 37.8151C43.6507 37.8392 43.3753 37.8035 43.7678 37.7425C44.0293 37.6782 44.3215 36.877 44.4646 36.5823C44.5639 36.3777 44.6311 36.3944 44.7135 36.1108C44.4066 36.2248 44.6458 35.8757 44.478 36.3051C44.4608 36.2882 44.4424 36.2637 44.4284 36.2519L44.3275 36.1627C44.1728 36.0672 44.0326 36.1001 43.7245 36.1119C43.447 36.1226 43.1661 36.13 42.8883 36.1335L38.2001 36.532C38.3186 36.1992 38.2934 36.3274 38.2968 36.061C38.1042 36.1485 38.2298 36.0685 38.1116 36.219C38.1093 36.2219 37.9785 36.465 37.9771 36.4681C37.873 36.6802 37.8189 36.7303 37.8013 36.9594H37.8015Z" fill="#E63A01"/>
<path fill-rule="evenodd" clip-rule="evenodd" d="M64.3751 6.62387C64.3758 6.9002 64.3406 7.20668 64.4479 7.38261C64.571 6.72445 64.727 6.37259 65.062 5.90035L65.4081 5.50073C65.5566 5.33878 65.7208 5.14669 65.8829 4.99526C66.2786 4.62633 66.5119 4.51104 67.0376 4.17025C67.3893 3.94203 67.1972 4.00176 67.6492 3.82601L68.9965 3.2619C69.1663 3.17747 69.5438 3.12319 69.7664 3.05746C71.1199 2.65839 72.8069 2.57033 74.2075 2.58286C74.9826 2.58994 74.6954 2.5342 75.0525 2.39095C75.2301 2.31978 75.3129 2.07122 75.2966 1.77419C74.3376 1.67378 72.2981 1.6647 71.537 1.8893C70.663 2.14711 70.275 1.97281 69.5321 2.29182L68.3482 2.69452C67.6804 3.02206 67.5277 3.02405 67.2426 3.24828C66.9512 3.47759 67.0207 3.35758 66.7554 3.51935C66.6053 3.61104 66.5793 3.64917 66.4489 3.74285C65.6073 4.34782 64.3976 5.68792 64.3751 6.62387Z" fill="#91D7FE"/>
<path fill-rule="evenodd" clip-rule="evenodd" d="M27.8837 6.76817L27.9156 7.16053C28.1702 7.00275 27.971 7.1253 28.2906 6.56864L29.4173 5.06349C29.428 5.0526 29.4434 5.03608 29.4545 5.02519C29.4652 5.01466 29.481 4.99868 29.4921 4.98833C29.5032 4.97798 29.5197 4.96309 29.5313 4.95311C30.1353 4.42912 31.2478 3.72975 31.9919 3.56017L33.0211 3.2241C33.6791 3.01331 34.4888 2.97354 35.1899 2.90328C35.8296 2.83901 36.291 2.81195 36.9892 2.81159L38.2951 2.83374C38.5535 2.70501 38.2297 2.72027 38.6058 2.56122C38.8024 2.47007 38.7414 2.20499 38.7089 1.99801C37.7026 1.98639 35.7889 1.85676 34.9656 2.07191C34.4047 2.21843 34.2542 2.04504 33.6978 2.24094C33.1273 2.44193 32.3511 2.56322 32.1468 2.654C31.3689 2.99933 31.402 2.93887 30.6791 3.36372L30.4804 3.47302C30.1698 3.64714 29.5851 4.08252 29.365 4.32599L28.6307 5.17788C28.6212 5.18968 28.6074 5.20765 28.5982 5.21982L28.3725 5.59057C28.3641 5.606 28.3541 5.62543 28.3458 5.64086L28.1551 5.99055C28.1471 6.00634 28.1372 6.02541 28.1292 6.04138C28.008 6.28286 27.9049 6.4755 27.8833 6.76817H27.8837Z" fill="#91D7FE"/>
<path fill-rule="evenodd" clip-rule="evenodd" d="M61.6062 13.6218H61.4551L61.452 14.0655L61.4297 14.5746C62.9214 14.5229 63.7112 14.6307 65.3476 14.4259C65.598 14.3945 65.7182 14.3295 65.9979 14.2729C67.7532 13.9181 70.4322 12.9457 71.3634 11.323C71.3352 11.1963 71.5958 11.0672 71.079 11.2101L70.6509 11.4963C70.6371 11.5055 70.618 11.5164 70.6046 11.526L70.1971 11.8251C70.1875 11.8305 69.9676 11.9442 69.9634 11.9462C69.7907 12.0331 69.6289 12.0998 69.4521 12.1889C69.3362 12.247 69.3507 12.2419 69.2024 12.3145C69.1815 12.3247 69.1218 12.3549 69.1005 12.3647L68.4921 12.5951C68.4733 12.6016 68.4537 12.6087 68.4347 12.6147C68.4152 12.6212 68.3951 12.6267 68.3753 12.633L65.9062 13.3258C65.1007 13.5326 65.0558 13.4183 64.7341 13.5217C64.082 13.7315 63.995 13.5586 63.3339 13.6657C62.3452 13.8257 62.8656 13.7307 61.951 13.8014C61.6084 14.3804 61.957 14.187 61.6483 14.378C61.4526 14.1997 61.6213 13.9161 61.6056 13.6216L61.6062 13.6218Z" fill="#0081F7"/>
<path fill-rule="evenodd" clip-rule="evenodd" d="M3.65636 36.8901C3.56121 36.9589 3.48131 36.771 3.55485 37.0448L3.4873 37.4406C4.20364 37.3215 5.73781 37.3981 6.50534 37.4288L9.30458 37.7028C9.42206 37.6928 9.38847 37.8549 9.40172 37.562L9.00116 37.5157C9.00479 37.4911 9.15822 37.3738 9.25537 37.2463C9.37685 37.0871 9.89235 36.1853 9.90325 36.0088C8.99734 36.1824 5.59472 36.1086 4.44496 36.0573C4.38867 36.1931 4.42934 36.0976 4.34218 36.2501C3.97739 36.8866 4.14099 36.7 4.02787 36.9373L3.61005 37.2881C3.74569 36.9032 3.69648 37.1873 3.65672 36.8901H3.65636Z" fill="#E63A01"/>
<path fill-rule="evenodd" clip-rule="evenodd" d="M28.7445 35.4622L32.0587 35.568C32.0524 35.5847 32.0408 35.6123 32.0333 35.6328L31.4573 37.4051L31.486 37.7484C32.7898 37.3491 35.747 37.792 37.1466 37.6122L37.2256 37.1812C36.973 37.2273 37.2448 37.2889 37.0553 37.136L37.1274 36.6298C36.6622 36.6225 36.1565 36.6387 35.6976 36.6169C35.2963 36.5978 35.4247 36.5506 35.1534 36.5098L33.0558 36.4722C31.9097 36.4569 32.2699 36.3952 32.0384 36.6812L31.9409 36.8108C31.9594 36.1481 32.2872 36.0315 32.299 35.2468L29.5005 35.2441C28.5987 35.2232 28.7445 35.2034 28.7445 35.4625V35.4622Z" fill="#E23802"/>
<path fill-rule="evenodd" clip-rule="evenodd" d="M47.6396 37.7146C47.6754 38.1292 47.7212 38.4651 47.8817 38.7444C48.924 38.8281 49.9671 38.6229 50.9831 38.5909C52.0404 38.5579 53.2677 38.6452 54.2902 38.5541L53.7522 35.4697C53.6498 35.953 53.9988 36.8828 53.9697 37.4807C52.8377 37.4667 51.7642 37.4562 50.7127 37.5611L47.6398 37.7147L47.6396 37.7146Z" fill="#B92A01"/>
<path fill-rule="evenodd" clip-rule="evenodd" d="M33.2421 27.6766C33.1459 27.9535 33.2058 27.7614 33.1325 27.9044L32.8595 28.3126C32.561 28.6554 31.7252 29.6236 31.6299 29.9708L34.1976 29.9568L34.8747 27.663C34.923 27.4627 34.8989 27.3215 35.0383 27.1671C35.1738 27.0173 34.9862 27.1588 35.1767 27.0685C35.1685 26.7592 35.3027 26.3102 35.3964 25.9973C35.4952 25.668 35.6259 25.3397 35.6399 24.9512L35.1514 25.3925C35.1413 25.4049 35.1271 25.4218 35.1173 25.4345L34.4211 26.3252C34.2426 26.5415 34.0592 26.7975 33.8504 27.0395C33.7144 27.1973 33.6846 27.2488 33.5508 27.4244C33.5285 27.4534 33.4689 27.6032 33.2425 27.6762L33.2421 27.6766Z" fill="#02030B"/>
<path fill-rule="evenodd" clip-rule="evenodd" d="M34.23 19.3031L34.2598 19.4144C34.563 19.4055 34.805 19.2942 35.2501 19.2724C35.6287 19.2541 35.9138 19.2181 36.2698 19.1731C37.9144 18.9654 40.1606 18.952 41.8369 19.0117C42.4841 19.0349 42.2157 19.241 42.6901 18.91L42.8507 18.1631L38.0517 18.2141C37.6139 18.3158 36.7893 18.227 36.3162 18.3156C36.1102 18.3543 36.1108 18.3953 35.8551 18.4162C35.4211 18.4514 35.048 18.3673 34.7673 18.5789L34.23 19.3031Z" fill="#FED6DB"/>
<path fill-rule="evenodd" clip-rule="evenodd" d="M65.0097 37.5887C64.7354 37.6027 64.4169 37.5967 64.142 37.5713C63.7808 37.5381 63.8918 37.4878 63.5417 37.462C63.0489 37.4255 62.4538 37.4499 61.9516 37.4497C60.4427 37.4495 60.9487 37.4584 59.751 37.5677C59.5979 37.5818 59.5498 37.5679 59.3991 37.6136C59.2415 37.6616 59.3341 37.6403 59.2355 37.7256L59.1876 37.4555C58.9372 37.5365 59.15 37.3427 58.8168 38.0107C58.6915 38.2622 58.586 38.4846 58.5493 38.717C58.986 38.7375 60.3604 38.561 61.4976 38.5597C62.129 38.5592 64.1507 38.6634 64.599 38.5381L64.8966 37.89C64.9638 37.7523 64.9604 37.8173 65.0096 37.5886L65.0097 37.5887Z" fill="#B62901"/>
<path fill-rule="evenodd" clip-rule="evenodd" d="M13.8301 18.5799C14.3875 18.7146 16.6571 18.6186 17.3978 18.6186C18.0053 18.6186 18.6082 18.6269 19.215 18.6326C19.8262 18.6384 20.3735 18.7362 20.9298 18.7569C21.1977 18.6685 20.9774 18.7629 21.0942 18.6033L21.2491 18.3766C21.2587 18.3631 21.2745 18.3479 21.2837 18.3341C21.4421 18.1035 21.4348 18.0808 21.3762 17.815C20.2124 17.791 15.871 17.6752 14.6693 17.7509C14.188 17.7814 13.9808 18.1215 13.8301 18.5801V18.5799Z" fill="#FED6DB"/>
<path fill-rule="evenodd" clip-rule="evenodd" d="M9.3046 37.7029L6.50537 37.4289C5.73783 37.3982 4.20366 37.3216 3.48733 37.4407L3.55487 37.0449L2.86523 38.3331C2.87159 38.6033 5.55425 38.4268 5.97824 38.4422C6.51263 38.4616 8.54087 38.7296 8.85029 38.6743C8.93145 38.5279 8.97049 38.3981 9.05656 38.2547C9.19965 38.0166 9.24776 37.9865 9.30442 37.7027L9.3046 37.7029Z" fill="#B62901"/>
<path fill-rule="evenodd" clip-rule="evenodd" d="M25.8198 17.7682C25.8745 18.0483 25.7294 17.8791 26.1547 18.0883C26.2137 18.1173 26.2954 18.1589 26.3577 18.1905C26.6451 18.335 26.7604 18.3969 26.9718 18.5654C27.5859 19.0545 27.5842 18.9903 28.1996 19.6067L28.5352 19.9554C28.8471 20.3017 29.7378 21.256 29.8264 21.6645L30.0697 21.7215C30.6413 21.6901 30.7506 21.3756 30.5335 20.9774C30.5198 20.9526 30.4318 20.8139 30.4154 20.7855L28.6674 18.6887C28.2839 18.2813 27.8532 17.9684 27.3324 17.6605C26.9734 17.4483 26.8487 17.0632 26.1323 17.5033C26.1009 17.5225 25.9793 17.6039 25.9535 17.6256C25.8171 17.7408 25.8827 17.6772 25.82 17.7678L25.8198 17.7682Z" fill="#FED6DB"/>
<path fill-rule="evenodd" clip-rule="evenodd" d="M74.9295 13.9064C74.9095 13.9193 74.8819 13.9347 74.869 13.944L74.6963 14.0923C74.5845 14.3494 74.5959 14.2635 73.824 14.2172C73.4318 14.1936 73.3537 14.1372 73.0616 14.1019C72.488 14.0335 71.7533 14.0727 71.1666 14.0722L71.4573 13.3421L71.5581 12.9478C71.1969 13.2254 71.1221 13.7882 70.7492 14.4642C70.7188 14.5188 70.6527 14.6319 70.6175 14.7071C70.532 14.8903 70.5425 14.7016 70.5186 15.0531C70.8005 15.1532 70.4971 15.1864 71.3297 15.1797C71.8873 15.1751 74.1403 15.2953 74.2814 15.1882C74.3795 15.0206 74.4861 14.7721 74.5861 14.5954C74.7228 14.3536 74.8639 14.223 74.9295 13.9064Z" fill="#0053B2"/>
<path fill-rule="evenodd" clip-rule="evenodd" d="M38.4543 14.1983C37.976 14.3828 38.3264 14.402 37.6876 14.3044C37.1402 14.2207 35.3572 14.2334 34.8199 14.2764L34.8911 13.8989C34.4668 14.0963 34.845 14.0923 34.2225 14.9307C34.1027 15.0923 34.0689 15.1034 34.043 15.361L37.7459 15.3785L38.4543 14.1983Z" fill="#0056B8"/>
<path fill-rule="evenodd" clip-rule="evenodd" d="M53.6632 14.2015C53.3749 14.2937 53.5766 14.0702 53.4364 14.3758C53.099 14.2494 53.2358 14.253 52.727 14.2458L50.1845 14.2561L50.2671 13.9126C49.9808 14.0146 50.1958 13.8113 49.9786 14.2075C49.9158 14.322 49.8575 14.4589 49.7754 14.6011C49.5986 14.9072 49.4449 15.0161 49.3638 15.3823L52.9502 15.3729L53.387 14.6575C53.4517 14.5648 53.3979 14.6519 53.4858 14.5314C53.6013 14.3729 53.5886 14.4704 53.6632 14.2015Z" fill="#0056B8"/>
<path fill-rule="evenodd" clip-rule="evenodd" d="M56.923 14.2538C56.6588 14.2538 56.785 14.4675 56.7036 14.7987C56.6584 14.9833 56.5729 15.2319 56.5684 15.5315C57.2614 15.5175 57.7817 15.4389 58.4717 15.4338C61.0768 15.4145 60.0974 15.6228 60.5326 14.5365C60.6626 14.2119 60.7113 14.1431 60.7233 13.6904C60.4734 13.8342 60.5317 14.0334 60.3628 14.4092L56.9624 14.4152L56.923 14.2538Z" fill="#0053B2"/>
<path fill-rule="evenodd" clip-rule="evenodd" d="M81.0659 14.4655C80.5689 14.5198 79.7515 14.4345 79.2701 14.3898C78.6571 14.3326 78.2211 14.2985 77.5202 14.2951L77.4912 14.0737H77.3152C77.2279 14.725 76.8671 14.7856 76.854 15.3457L80.484 15.5052C80.6904 15.2945 80.7478 15.0963 80.9074 14.7985C80.9848 14.6542 80.9855 14.7284 81.0659 14.4655Z" fill="#0055B5"/>
<path fill-rule="evenodd" clip-rule="evenodd" d="M57.5239 2.89382C57.5379 3.36606 57.504 3.02164 57.6398 3.15091C60.483 2.74839 60.8263 3.04288 62.6321 2.88293C62.7749 2.54813 62.6171 2.54178 62.8943 2.44046L62.8805 2.09768C62.3714 2.07771 61.8577 2.0906 61.3462 2.08969L58.5046 2.29394C57.8724 2.46534 57.7529 2.2402 57.5239 2.89364V2.89382Z" fill="#91D7FE"/>
<path fill-rule="evenodd" clip-rule="evenodd" d="M48.9237 14.3716C48.2014 14.5758 46.2754 14.4079 45.3295 14.4574L45.4222 13.7729H45.256C45.2253 14.0624 45.2061 14.3977 45.1135 14.641C44.9869 14.9742 44.8816 15.0865 44.9234 15.5125L47.6554 15.4981C48.6338 15.5012 48.4838 15.5043 48.7171 14.9064C48.7897 14.7207 48.8733 14.5858 48.9237 14.3716Z" fill="#0053B2"/>
<path fill-rule="evenodd" clip-rule="evenodd" d="M48.8104 3.10538L48.771 3.3966C49.5847 3.33378 49.4897 3.25462 50.7562 3.25045C51.4195 3.24827 52.3806 3.32507 52.9771 3.21577C53.0741 3.05454 53.1914 2.80381 53.1667 2.43869C52.3619 2.38948 51.4894 2.39965 50.6805 2.40964C50.4207 2.41272 49.6188 2.40964 49.4109 2.45721C49.2417 2.49588 49.3413 2.45521 49.2175 2.54889C49.0178 2.7005 48.8622 2.84538 48.8104 3.10556V3.10538Z" fill="#89D5FF"/>
<path fill-rule="evenodd" clip-rule="evenodd" d="M76.8222 2.42381C76.8265 2.82252 76.7321 2.5598 76.7007 2.95415C77.3524 2.97594 78.0791 2.93944 78.7445 2.94198C79.3917 2.94434 80.2074 3.08868 80.7401 2.863L80.9121 2.62625C81.0377 2.36988 81.0085 2.42072 80.9789 2.15855C80.0439 2.14529 77.6039 2.00404 76.8327 2.1698L76.8223 2.42399L76.8222 2.42381Z" fill="#89D5FF"/>
<path fill-rule="evenodd" clip-rule="evenodd" d="M42.0294 2.75193L41.9058 3.1481C42.8008 3.08528 45.5693 3.23162 46.0892 3.0604C46.2047 2.90099 46.2375 2.6764 46.1769 2.32072L42.7319 2.27588C42.2934 2.28986 42.0657 2.39807 42.0294 2.75211V2.75193Z" fill="#89D5FF"/>
<path fill-rule="evenodd" clip-rule="evenodd" d="M77.4914 14.0738L77.5205 14.2952C78.2214 14.2986 78.6571 14.3328 79.2703 14.3899C79.7517 14.4346 80.5694 14.5199 81.0662 14.4657C81.2379 14.3004 81.3923 13.9466 81.4646 13.6908C81.2281 13.7781 81.3389 13.6935 81.2051 13.877L81.1159 14.0695C81.1094 14.057 81.0994 14.1198 81.0891 14.1439L80.971 13.8536C80.9211 13.6811 81.0373 13.8652 80.9378 13.6368L79.6764 13.5838C79.0532 13.4353 79.5418 13.4801 78.5887 13.4584C77.9619 13.444 78.3515 13.4591 77.9125 13.6377C77.9138 13.1009 78.1189 13.0958 78.2829 12.611L78.3183 12.4727C78.0892 12.583 78.1465 12.5872 78.0338 12.8269C77.9915 12.9171 77.9016 13.1366 77.8437 13.247C77.7692 13.3885 77.7073 13.4573 77.6205 13.6185L77.5237 13.8233C77.4669 14.0134 77.4778 13.8474 77.4912 14.074L77.4914 14.0738Z" fill="#017EF3"/>
<path fill-rule="evenodd" clip-rule="evenodd" d="M83.1553 2.95519V3.28345C83.7452 3.21827 84.4944 3.24187 85.098 3.25658C85.717 3.27147 86.5523 3.42743 86.9799 3.34954C87.1657 3.29434 87.3441 2.88184 87.3314 2.61185C87.182 2.59588 87.0769 2.59116 86.932 2.55666L83.3583 2.45117L83.1555 2.95537L83.1553 2.95519Z" fill="#89D5FF"/>
<path fill-rule="evenodd" clip-rule="evenodd" d="M43.1285 14.3015C42.2828 14.5363 41.4223 14.0688 40.4157 14.4212C40.337 14.1619 40.3534 13.3625 40.5293 13.1937C40.5682 12.8336 40.7577 12.0295 40.728 11.8076C40.463 11.8399 40.515 12.3058 40.4734 12.5433C40.3116 13.4684 40.1298 14.3549 40.1035 15.3953L42.2084 15.3873C42.2236 15.3698 42.2467 15.3295 42.2536 15.3433C42.2625 15.3606 42.3121 15.2941 42.3428 15.266C42.3536 15.2558 42.3718 15.2382 42.3838 15.227L43.0898 14.3651C43.1003 14.3486 43.1165 14.3233 43.1283 14.3014L43.1285 14.3015Z" fill="#0056B8"/>
<path fill-rule="evenodd" clip-rule="evenodd" d="M34.891 13.8987L34.8198 14.2761C35.3573 14.2331 37.1401 14.2204 37.6875 14.3041C38.3263 14.4019 37.9759 14.3825 38.4541 14.198C38.5604 14.1461 38.5008 14.2462 38.6522 13.9056L38.7367 13.6904L38.4044 13.7093C38.3888 13.6977 38.3706 13.6811 38.3528 13.6695C37.9851 13.4311 36.4431 13.4506 35.9999 13.462C35.7444 13.4687 35.8274 13.4558 35.6108 13.5239C35.2979 13.6223 35.8566 13.645 35.2553 13.606L35.2064 13.4698C34.9842 13.541 35.1151 13.4636 34.9847 13.6584C34.9725 13.6764 34.9458 13.7358 34.9375 13.7541C34.9037 13.8286 34.9275 13.7209 34.8912 13.8983L34.891 13.8987Z" fill="#0081F7"/>
<path fill-rule="evenodd" clip-rule="evenodd" d="M45.4222 13.773L45.3296 14.4575C46.2754 14.4079 48.2015 14.5759 48.9238 14.3716L48.9783 14.1073C48.6414 14.0457 48.7177 14.2311 48.7137 13.637C48.137 13.6846 47.5498 13.6554 46.974 13.6323C46.7265 13.6223 46.2934 13.6049 46.0574 13.6239C45.7365 13.6499 45.9145 13.6187 45.6406 13.8921C45.3272 14.2051 45.8781 13.8424 45.5106 13.9923L45.5437 13.4424H45.4077L45.4224 13.773H45.4222Z" fill="#0081F7"/>
<path fill-rule="evenodd" clip-rule="evenodd" d="M74.6957 14.0926L74.5258 13.9929C74.7086 13.8088 74.8174 13.6118 74.8198 13.2817C74.2137 13.3126 73.6003 13.2964 72.9902 13.3248C72.5317 13.3462 72.7054 13.4257 72.2402 13.4388C71.8188 13.4506 71.9388 13.4034 71.6338 13.5577L71.4113 13.6737L71.4567 13.3424L71.166 14.0724C71.7527 14.0728 72.4874 14.0336 73.061 14.1022C73.3533 14.1373 73.4312 14.1939 73.8234 14.2175C74.5953 14.2638 74.5839 14.3499 74.6957 14.0926Z" fill="#0081F7"/>
<path fill-rule="evenodd" clip-rule="evenodd" d="M57.0846 8.84073C56.9551 9.41737 56.6962 9.2723 56.7397 9.74454L57.9422 9.73946C58.1072 9.52068 58.0945 9.47565 58.184 9.17444C58.2378 8.99306 58.2935 8.69748 58.3191 8.39282L58.6478 6.88314C58.5269 6.75768 58.6701 6.83775 58.441 6.81614C58.4252 7.07105 57.6818 8.14626 57.4835 8.39826C57.3731 8.53879 57.205 8.74559 57.0847 8.84055L57.0846 8.84073Z" fill="#000A1C"/>
<path fill-rule="evenodd" clip-rule="evenodd" d="M43.1285 14.3012C43.3682 14.083 43.485 13.9977 43.593 13.6905L43.3432 13.8326C43.327 13.8156 43.3096 13.7914 43.2963 13.78C43.2838 13.7689 43.2642 13.7442 43.2482 13.7319L43.1461 13.6598C42.9491 13.5668 40.6732 13.6489 40.4727 13.6703L40.5294 13.1934C40.3533 13.3622 40.3369 14.1618 40.4157 14.4209C41.4224 14.0685 42.2829 14.536 43.1285 14.3012Z" fill="#017EF3"/>
</svg>
